%TF.GenerationSoftware,KiCad,Pcbnew,9.0.7*%
%TF.CreationDate,2026-02-22T15:51:38+01:00*%
%TF.ProjectId,PoolController v1.0,506f6f6c-436f-46e7-9472-6f6c6c657220,rev?*%
%TF.SameCoordinates,Original*%
%TF.FileFunction,Copper,L1,Top*%
%TF.FilePolarity,Positive*%
%FSLAX46Y46*%
G04 Gerber Fmt 4.6, Leading zero omitted, Abs format (unit mm)*
G04 Created by KiCad (PCBNEW 9.0.7) date 2026-02-22 15:51:38*
%MOMM*%
%LPD*%
G01*
G04 APERTURE LIST*
G04 Aperture macros list*
%AMRoundRect*
0 Rectangle with rounded corners*
0 $1 Rounding radius*
0 $2 $3 $4 $5 $6 $7 $8 $9 X,Y pos of 4 corners*
0 Add a 4 corners polygon primitive as box body*
4,1,4,$2,$3,$4,$5,$6,$7,$8,$9,$2,$3,0*
0 Add four circle primitives for the rounded corners*
1,1,$1+$1,$2,$3*
1,1,$1+$1,$4,$5*
1,1,$1+$1,$6,$7*
1,1,$1+$1,$8,$9*
0 Add four rect primitives between the rounded corners*
20,1,$1+$1,$2,$3,$4,$5,0*
20,1,$1+$1,$4,$5,$6,$7,0*
20,1,$1+$1,$6,$7,$8,$9,0*
20,1,$1+$1,$8,$9,$2,$3,0*%
%AMFreePoly0*
4,1,5,0.850000,-0.850000,-0.850000,-0.850000,-0.850000,0.850000,0.850000,0.850000,0.850000,-0.850000,0.850000,-0.850000,$1*%
G04 Aperture macros list end*
%TA.AperFunction,EtchedComponent*%
%ADD10C,0.000000*%
%TD*%
%TA.AperFunction,ComponentPad*%
%ADD11C,1.300000*%
%TD*%
%TA.AperFunction,ComponentPad*%
%ADD12C,1.710000*%
%TD*%
%TA.AperFunction,SMDPad,CuDef*%
%ADD13RoundRect,0.250000X-0.625000X0.312500X-0.625000X-0.312500X0.625000X-0.312500X0.625000X0.312500X0*%
%TD*%
%TA.AperFunction,ComponentPad*%
%ADD14RoundRect,0.249999X1.250001X-1.250001X1.250001X1.250001X-1.250001X1.250001X-1.250001X-1.250001X0*%
%TD*%
%TA.AperFunction,ComponentPad*%
%ADD15C,3.000000*%
%TD*%
%TA.AperFunction,ComponentPad*%
%ADD16RoundRect,0.249999X-1.250001X-1.250001X1.250001X-1.250001X1.250001X1.250001X-1.250001X1.250001X0*%
%TD*%
%TA.AperFunction,ComponentPad*%
%ADD17RoundRect,0.249999X1.250001X1.250001X-1.250001X1.250001X-1.250001X-1.250001X1.250001X-1.250001X0*%
%TD*%
%TA.AperFunction,ComponentPad*%
%ADD18C,1.800000*%
%TD*%
%TA.AperFunction,ComponentPad*%
%ADD19FreePoly0,180.000000*%
%TD*%
%TA.AperFunction,ComponentPad*%
%ADD20C,1.600000*%
%TD*%
%TA.AperFunction,ComponentPad*%
%ADD21RoundRect,0.250001X0.949999X-0.949999X0.949999X0.949999X-0.949999X0.949999X-0.949999X-0.949999X0*%
%TD*%
%TA.AperFunction,ComponentPad*%
%ADD22C,2.400000*%
%TD*%
%TA.AperFunction,ComponentPad*%
%ADD23R,2.000000X1.905000*%
%TD*%
%TA.AperFunction,ComponentPad*%
%ADD24O,2.000000X1.905000*%
%TD*%
%TA.AperFunction,ComponentPad*%
%ADD25R,1.200000X2.000000*%
%TD*%
%TA.AperFunction,ComponentPad*%
%ADD26O,1.200000X2.000000*%
%TD*%
%TA.AperFunction,ComponentPad*%
%ADD27RoundRect,0.250000X0.550000X-0.550000X0.550000X0.550000X-0.550000X0.550000X-0.550000X-0.550000X0*%
%TD*%
%TA.AperFunction,ComponentPad*%
%ADD28C,2.000000*%
%TD*%
%TA.AperFunction,ComponentPad*%
%ADD29RoundRect,0.250001X0.949999X0.949999X-0.949999X0.949999X-0.949999X-0.949999X0.949999X-0.949999X0*%
%TD*%
%TA.AperFunction,ComponentPad*%
%ADD30R,1.800000X1.800000*%
%TD*%
%TA.AperFunction,ComponentPad*%
%ADD31R,1.700000X1.700000*%
%TD*%
%TA.AperFunction,ComponentPad*%
%ADD32C,1.700000*%
%TD*%
%TA.AperFunction,ComponentPad*%
%ADD33RoundRect,0.250000X0.750000X-0.750000X0.750000X0.750000X-0.750000X0.750000X-0.750000X-0.750000X0*%
%TD*%
%TA.AperFunction,ViaPad*%
%ADD34C,0.600000*%
%TD*%
%TA.AperFunction,ViaPad*%
%ADD35C,1.000000*%
%TD*%
%TA.AperFunction,Conductor*%
%ADD36C,0.400000*%
%TD*%
%TA.AperFunction,Conductor*%
%ADD37C,0.300000*%
%TD*%
%TA.AperFunction,Conductor*%
%ADD38C,1.000000*%
%TD*%
%TA.AperFunction,Conductor*%
%ADD39C,2.000000*%
%TD*%
%TA.AperFunction,Conductor*%
%ADD40C,0.600000*%
%TD*%
%TA.AperFunction,Conductor*%
%ADD41C,0.250000*%
%TD*%
%TA.AperFunction,Conductor*%
%ADD42C,0.500000*%
%TD*%
G04 APERTURE END LIST*
D10*
%TA.AperFunction,EtchedComponent*%
%TO.C,NT1*%
G36*
X55730000Y-66570000D02*
G01*
X54430000Y-66570000D01*
X54430000Y-63970000D01*
X55730000Y-63970000D01*
X55730000Y-66570000D01*
G37*
%TD.AperFunction*%
%TD*%
D11*
%TO.P,NT1,1,1*%
%TO.N,GND_ANA*%
X55080000Y-63970000D03*
%TO.P,NT1,2,2*%
%TO.N,GND_PWR*%
X55080000Y-66570000D03*
%TD*%
D12*
%TO.P,F1,1,1*%
%TO.N,Net-(J9-Pin_1)*%
X128820000Y-146520000D03*
%TO.P,F1,2,2*%
%TO.N,Net-(D1-K)*%
X123720000Y-145320000D03*
%TD*%
D13*
%TO.P,FB2,1*%
%TO.N,+5V*%
X118580000Y-63777500D03*
%TO.P,FB2,2*%
%TO.N,Net-(U4-OUT)*%
X118580000Y-66702500D03*
%TD*%
%TO.P,FB1,1*%
%TO.N,+3.3V*%
X62700000Y-63777500D03*
%TO.P,FB1,2*%
%TO.N,+3.3V_PWR*%
X62700000Y-66702500D03*
%TD*%
D14*
%TO.P,J8,1,Pin_1*%
%TO.N,+12V*%
X164452400Y-106689000D03*
D15*
%TO.P,J8,2,Pin_2*%
%TO.N,Net-(D7-A)*%
X164452400Y-101689000D03*
%TD*%
D14*
%TO.P,J5,1,Pin_1*%
%TO.N,+12V*%
X164452400Y-95640000D03*
D15*
%TO.P,J5,2,Pin_2*%
%TO.N,Net-(D6-A)*%
X164452400Y-90640000D03*
%TD*%
D14*
%TO.P,J2,1,Pin_1*%
%TO.N,+12V*%
X164452400Y-84594800D03*
D15*
%TO.P,J2,2,Pin_2*%
%TO.N,Net-(D4-A)*%
X164452400Y-79594800D03*
%TD*%
D14*
%TO.P,J1,1,Pin_1*%
%TO.N,+12V*%
X164452400Y-73545800D03*
D15*
%TO.P,J1,2,Pin_2*%
%TO.N,Net-(D2-A)*%
X164452400Y-68545800D03*
%TD*%
D16*
%TO.P,J9,1,Pin_1*%
%TO.N,Net-(J9-Pin_1)*%
X136440000Y-146520000D03*
D15*
%TO.P,J9,2,Pin_2*%
%TO.N,GND_PWR*%
X141440000Y-146520000D03*
%TD*%
D17*
%TO.P,J6,1,Pin_1*%
%TO.N,+3.3V*%
X75400000Y-37300000D03*
D15*
%TO.P,J6,2,Pin_2*%
%TO.N,GND_ANA*%
X70400000Y-37300000D03*
%TO.P,J6,3,Pin_3*%
%TO.N,Net-(J6-Pin_3)*%
X65400000Y-37300000D03*
%TD*%
D17*
%TO.P,J7,1,Pin_1*%
%TO.N,+5V*%
X118500000Y-37300000D03*
D15*
%TO.P,J7,2,Pin_2*%
%TO.N,GND_ANA*%
X113500000Y-37300000D03*
%TO.P,J7,3,Pin_3*%
%TO.N,Net-(J7-Pin_3)*%
X108500000Y-37300000D03*
%TD*%
D17*
%TO.P,J4,1,Pin_1*%
%TO.N,GND_ANA*%
X98260000Y-37300000D03*
D15*
%TO.P,J4,2,Pin_2*%
%TO.N,+3.3V*%
X93260000Y-37300000D03*
%TO.P,J4,3,Pin_3*%
%TO.N,/DATA_DS18B20*%
X88260000Y-37300000D03*
%TD*%
D18*
%TO.P,U3,1,PG*%
%TO.N,unconnected-(U3-PG-Pad1)*%
X70310000Y-137630000D03*
%TO.P,U3,2,SHDN*%
%TO.N,Net-(U3-SHDN)*%
X70310000Y-135090000D03*
%TO.P,U3,3,VIN*%
%TO.N,+12V*%
X70320000Y-132550000D03*
D19*
%TO.P,U3,4,GND*%
%TO.N,GND_PWR*%
X70310000Y-130010000D03*
D18*
%TO.P,U3,5,VOUT*%
%TO.N,+3.3V_PWR*%
X70310000Y-127470000D03*
%TD*%
D20*
%TO.P,C22,1*%
%TO.N,+3.3V*%
X62680000Y-60795000D03*
%TO.P,C22,2*%
%TO.N,GND_ANA*%
X60180000Y-60795000D03*
%TD*%
D21*
%TO.P,D4,1,K*%
%TO.N,+12V*%
X151600000Y-85560000D03*
D22*
%TO.P,D4,2,A*%
%TO.N,Net-(D4-A)*%
X151600000Y-75400000D03*
%TD*%
D20*
%TO.P,R3,1*%
%TO.N,/DATA_ORP*%
X113500000Y-57874000D03*
%TO.P,R3,2*%
%TO.N,GND_ANA*%
X103340000Y-57874000D03*
%TD*%
%TO.P,R13,1*%
%TO.N,Net-(Q6-G)*%
X138900000Y-90640000D03*
%TO.P,R13,2*%
%TO.N,/FILTRATION_A2*%
X128740000Y-90640000D03*
%TD*%
%TO.P,C7,1*%
%TO.N,+12V*%
X98260000Y-131280000D03*
%TO.P,C7,2*%
%TO.N,GND_PWR*%
X98260000Y-133780000D03*
%TD*%
%TO.P,R12,1*%
%TO.N,Net-(D1-A)*%
X108420000Y-126200000D03*
%TO.P,R12,2*%
%TO.N,GND_PWR*%
X108420000Y-136360000D03*
%TD*%
%TO.P,C18,1*%
%TO.N,+12V*%
X146440000Y-98180000D03*
%TO.P,C18,2*%
%TO.N,GND_PWR*%
X143940000Y-98180000D03*
%TD*%
%TO.P,C11,1*%
%TO.N,+12V*%
X146440000Y-82940000D03*
%TO.P,C11,2*%
%TO.N,GND_PWR*%
X143940000Y-82940000D03*
%TD*%
D23*
%TO.P,Q5,1,G*%
%TO.N,Net-(D1-A)*%
X123660000Y-128740000D03*
D24*
%TO.P,Q5,2,D*%
%TO.N,+12V*%
X123660000Y-131280000D03*
%TO.P,Q5,3,S*%
%TO.N,Net-(D1-K)*%
X123660000Y-133820000D03*
%TD*%
D20*
%TO.P,R14,1*%
%TO.N,Net-(Q6-G)*%
X138900000Y-85560000D03*
%TO.P,R14,2*%
%TO.N,GND_PWR*%
X128740000Y-85560000D03*
%TD*%
%TO.P,C2,1*%
%TO.N,GND_PWR*%
X65240000Y-113500000D03*
%TO.P,C2,2*%
%TO.N,+3.3V_PWR*%
X65240000Y-111000000D03*
%TD*%
D25*
%TO.P,U2,1,3V3*%
%TO.N,+3.3V_PWR*%
X65240000Y-108420000D03*
D26*
%TO.P,U2,2,CHIP_PU*%
%TO.N,unconnected-(U2-CHIP_PU-Pad2)*%
X67780000Y-108420000D03*
%TO.P,U2,3,SENSOR_VP/GPIO36/ADC1_CH0*%
%TO.N,/RTC_INT*%
X70320000Y-108420000D03*
%TO.P,U2,4,SENSOR_VN/GPIO39/ADC1_CH3*%
%TO.N,unconnected-(U2-SENSOR_VN{slash}GPIO39{slash}ADC1_CH3-Pad4)*%
X72860000Y-108420000D03*
%TO.P,U2,5,VDET_1/GPIO34/ADC1_CH6*%
%TO.N,unconnected-(U2-VDET_1{slash}GPIO34{slash}ADC1_CH6-Pad5)*%
X75400000Y-108420000D03*
%TO.P,U2,6,VDET_2/GPIO35/ADC1_CH7*%
%TO.N,unconnected-(U2-VDET_2{slash}GPIO35{slash}ADC1_CH7-Pad6)*%
X77940000Y-108420000D03*
%TO.P,U2,7,32K_XP/GPIO32/ADC1_CH4*%
%TO.N,/RESET_BUTTON*%
X80480000Y-108420000D03*
%TO.P,U2,8,32K_XN/GPIO33/ADC1_CH5*%
%TO.N,unconnected-(U2-32K_XN{slash}GPIO33{slash}ADC1_CH5-Pad8)*%
X83020000Y-108420000D03*
%TO.P,U2,9,DAC_1/ADC2_CH8/GPIO25*%
%TO.N,/FILTRATION_A2*%
X85560000Y-108420000D03*
%TO.P,U2,10,DAC_2/ADC2_CH9/GPIO26*%
%TO.N,/ECLAIRAGE_A2*%
X88100000Y-108420000D03*
%TO.P,U2,11,ADC2_CH7/GPIO27*%
%TO.N,unconnected-(U2-ADC2_CH7{slash}GPIO27-Pad11)*%
X90640000Y-108420000D03*
%TO.P,U2,12,MTMS/GPIO14/ADC2_CH6*%
%TO.N,unconnected-(U2-MTMS{slash}GPIO14{slash}ADC2_CH6-Pad12)*%
X93180000Y-108420000D03*
%TO.P,U2,13,MTDI/GPIO12/ADC2_CH5*%
%TO.N,unconnected-(U2-MTDI{slash}GPIO12{slash}ADC2_CH5-Pad13)*%
X95720000Y-108420000D03*
%TO.P,U2,14,GND*%
%TO.N,GND_PWR*%
X98260000Y-108420000D03*
%TO.P,U2,15,MTCK/GPIO13/ADC2_CH4*%
%TO.N,unconnected-(U2-MTCK{slash}GPIO13{slash}ADC2_CH4-Pad15)*%
X100800000Y-108420000D03*
%TO.P,U2,16,SD_DATA2/GPIO9*%
%TO.N,unconnected-(U2-SD_DATA2{slash}GPIO9-Pad16)*%
X103340000Y-108420000D03*
%TO.P,U2,17,SD_DATA3/GPIO10*%
%TO.N,unconnected-(U2-SD_DATA3{slash}GPIO10-Pad17)*%
X105880000Y-108420000D03*
%TO.P,U2,18,CMD*%
%TO.N,unconnected-(U2-CMD-Pad18)*%
X108420000Y-108420000D03*
%TO.P,U2,19,5V*%
%TO.N,unconnected-(U2-5V-Pad19)*%
X110960000Y-108420000D03*
%TO.P,U2,20,SD_CLK/GPIO6*%
%TO.N,unconnected-(U2-SD_CLK{slash}GPIO6-Pad20)*%
X110957280Y-83023680D03*
%TO.P,U2,21,SD_DATA0/GPIO7*%
%TO.N,unconnected-(U2-SD_DATA0{slash}GPIO7-Pad21)*%
X108417280Y-83023680D03*
%TO.P,U2,22,SD_DATA1/GPIO8*%
%TO.N,unconnected-(U2-SD_DATA1{slash}GPIO8-Pad22)*%
X105880000Y-83020000D03*
%TO.P,U2,23,MTDO/GPIO15/ADC2_CH3*%
%TO.N,unconnected-(U2-MTDO{slash}GPIO15{slash}ADC2_CH3-Pad23)*%
X103340000Y-83020000D03*
%TO.P,U2,24,ADC2_CH2/GPIO2*%
%TO.N,unconnected-(U2-ADC2_CH2{slash}GPIO2-Pad24)*%
X100800000Y-83020000D03*
%TO.P,U2,25,GPIO0/BOOT/ADC2_CH1*%
%TO.N,unconnected-(U2-GPIO0{slash}BOOT{slash}ADC2_CH1-Pad25)*%
X98260000Y-83020000D03*
%TO.P,U2,26,ADC2_CH0/GPIO4*%
%TO.N,unconnected-(U2-ADC2_CH0{slash}GPIO4-Pad26)*%
X95720000Y-83020000D03*
%TO.P,U2,27,GPIO16*%
%TO.N,unconnected-(U2-GPIO16-Pad27)*%
X93180000Y-83020000D03*
%TO.P,U2,28,GPIO17*%
%TO.N,unconnected-(U2-GPIO17-Pad28)*%
X90640000Y-83020000D03*
%TO.P,U2,29,GPIO5*%
%TO.N,/DATA_DS18B20*%
X88100000Y-83020000D03*
%TO.P,U2,30,GPIO18*%
%TO.N,/POMPE_1*%
X85560000Y-83020000D03*
%TO.P,U2,31,GPIO19*%
%TO.N,/POMPE_2*%
X83020000Y-83020000D03*
%TO.P,U2,32,GND*%
%TO.N,GND_PWR*%
X80480000Y-83020000D03*
%TO.P,U2,33,GPIO21*%
%TO.N,/SDA*%
X77940000Y-83020000D03*
%TO.P,U2,34,U0RXD/GPIO3*%
%TO.N,unconnected-(U2-U0RXD{slash}GPIO3-Pad34)*%
X75400000Y-83020000D03*
%TO.P,U2,35,U0TXD/GPIO1*%
%TO.N,unconnected-(U2-U0TXD{slash}GPIO1-Pad35)*%
X72860000Y-83020000D03*
%TO.P,U2,36,GPIO22*%
%TO.N,/SCL*%
X70320000Y-83020000D03*
%TO.P,U2,37,GPIO23*%
%TO.N,unconnected-(U2-GPIO23-Pad37)*%
X67780000Y-83020000D03*
%TO.P,U2,38,GND*%
%TO.N,GND_PWR*%
X65240000Y-83020000D03*
%TD*%
D20*
%TO.P,C20,1*%
%TO.N,+12V*%
X146440000Y-113420000D03*
%TO.P,C20,2*%
%TO.N,GND_PWR*%
X143940000Y-113420000D03*
%TD*%
%TO.P,C10,1*%
%TO.N,Net-(U4-OUT)*%
X82980000Y-131280000D03*
%TO.P,C10,2*%
%TO.N,GND_PWR*%
X80480000Y-131280000D03*
%TD*%
%TO.P,C4,1*%
%TO.N,+12V*%
X103340000Y-131280000D03*
%TO.P,C4,2*%
%TO.N,GND_PWR*%
X103340000Y-136280000D03*
%TD*%
%TO.P,C17,1*%
%TO.N,+12V*%
X138820000Y-95640000D03*
%TO.P,C17,2*%
%TO.N,GND_PWR*%
X133820000Y-95640000D03*
%TD*%
D27*
%TO.P,D1,1,K*%
%TO.N,Net-(D1-K)*%
X118580000Y-135090000D03*
D20*
%TO.P,D1,2,A*%
%TO.N,Net-(D1-A)*%
X118580000Y-127470000D03*
%TD*%
%TO.P,R9,1*%
%TO.N,+3.3V*%
X95720000Y-47460000D03*
%TO.P,R9,2*%
%TO.N,/DATA_DS18B20*%
X85560000Y-47460000D03*
%TD*%
%TO.P,R8,1*%
%TO.N,Net-(Q4-G)*%
X138900000Y-70320000D03*
%TO.P,R8,2*%
%TO.N,GND_PWR*%
X128740000Y-70320000D03*
%TD*%
%TO.P,R4,1*%
%TO.N,Net-(Q2-G)*%
X138900000Y-60160000D03*
%TO.P,R4,2*%
%TO.N,/POMPE_1*%
X128740000Y-60160000D03*
%TD*%
%TO.P,C14,1*%
%TO.N,+3.3V_PWR*%
X67740000Y-123660000D03*
%TO.P,C14,2*%
%TO.N,GND_PWR*%
X65240000Y-123660000D03*
%TD*%
%TO.P,C6,1*%
%TO.N,+12V*%
X146520000Y-67780000D03*
%TO.P,C6,2*%
%TO.N,GND_PWR*%
X144020000Y-67780000D03*
%TD*%
D28*
%TO.P,SW1,1,1*%
%TO.N,/RESET_BUTTON*%
X79210000Y-118000000D03*
%TO.N,N/C*%
X72710000Y-118000000D03*
%TO.P,SW1,2,2*%
X79210000Y-113500000D03*
%TO.N,+3.3V_PWR*%
X72710000Y-113500000D03*
%TD*%
D23*
%TO.P,Q7,1,G*%
%TO.N,Net-(Q7-G)*%
X143980000Y-103340000D03*
D24*
%TO.P,Q7,2,D*%
%TO.N,Net-(D7-A)*%
X143980000Y-105880000D03*
%TO.P,Q7,3,S*%
%TO.N,GND_PWR*%
X143980000Y-108420000D03*
%TD*%
D20*
%TO.P,C23,1*%
%TO.N,+5V*%
X118620000Y-52540000D03*
%TO.P,C23,2*%
%TO.N,GND_ANA*%
X123620000Y-52540000D03*
%TD*%
D21*
%TO.P,D6,1,K*%
%TO.N,+12V*%
X151600000Y-100800000D03*
D22*
%TO.P,D6,2,A*%
%TO.N,Net-(D6-A)*%
X151600000Y-90640000D03*
%TD*%
D23*
%TO.P,Q6,1,G*%
%TO.N,Net-(Q6-G)*%
X143980000Y-88100000D03*
D24*
%TO.P,Q6,2,D*%
%TO.N,Net-(D6-A)*%
X143980000Y-90640000D03*
%TO.P,Q6,3,S*%
%TO.N,GND_PWR*%
X143980000Y-93180000D03*
%TD*%
D20*
%TO.P,C12,1*%
%TO.N,GND_ANA*%
X100800000Y-47460000D03*
%TO.P,C12,2*%
%TO.N,+3.3V*%
X98300000Y-47460000D03*
%TD*%
%TO.P,C21,1*%
%TO.N,+3.3V*%
X62700000Y-55080000D03*
%TO.P,C21,2*%
%TO.N,GND_ANA*%
X57700000Y-55080000D03*
%TD*%
%TO.P,C16,1*%
%TO.N,+12V*%
X131280000Y-128527677D03*
%TO.P,C16,2*%
%TO.N,GND_PWR*%
X131280000Y-126027677D03*
%TD*%
D29*
%TO.P,D5,1,A1*%
%TO.N,Net-(D1-K)*%
X123660000Y-141440000D03*
D22*
%TO.P,D5,2,A2*%
%TO.N,GND_PWR*%
X113500000Y-141440000D03*
%TD*%
D20*
%TO.P,R19,1*%
%TO.N,+3.3V_PWR*%
X63970000Y-79210000D03*
%TO.P,R19,2*%
%TO.N,/SDA*%
X74130000Y-79210000D03*
%TD*%
%TO.P,C13,1*%
%TO.N,+3.3V_PWR*%
X67740000Y-118580000D03*
%TO.P,C13,2*%
%TO.N,GND_PWR*%
X62740000Y-118580000D03*
%TD*%
%TO.P,C5,1*%
%TO.N,+12V*%
X138980000Y-65240000D03*
%TO.P,C5,2*%
%TO.N,GND_PWR*%
X133980000Y-65240000D03*
%TD*%
%TO.P,R16,1*%
%TO.N,Net-(Q7-G)*%
X138900000Y-100800000D03*
%TO.P,R16,2*%
%TO.N,GND_PWR*%
X128740000Y-100800000D03*
%TD*%
D23*
%TO.P,Q4,1,G*%
%TO.N,Net-(Q4-G)*%
X143980000Y-72860000D03*
D24*
%TO.P,Q4,2,D*%
%TO.N,Net-(D4-A)*%
X143980000Y-75400000D03*
%TO.P,Q4,3,S*%
%TO.N,GND_PWR*%
X143980000Y-77940000D03*
%TD*%
D20*
%TO.P,R15,1*%
%TO.N,Net-(Q7-G)*%
X138900000Y-105880000D03*
%TO.P,R15,2*%
%TO.N,/ECLAIRAGE_A2*%
X128740000Y-105880000D03*
%TD*%
D21*
%TO.P,D2,1,K*%
%TO.N,+12V*%
X151600000Y-70320000D03*
D22*
%TO.P,D2,2,A*%
%TO.N,Net-(D2-A)*%
X151600000Y-60160000D03*
%TD*%
D20*
%TO.P,R5,1*%
%TO.N,Net-(Q2-G)*%
X138900000Y-55080000D03*
%TO.P,R5,2*%
%TO.N,GND_PWR*%
X128740000Y-55080000D03*
%TD*%
%TO.P,R1,1*%
%TO.N,Net-(J6-Pin_3)*%
X70320000Y-47460000D03*
%TO.P,R1,2*%
%TO.N,/DATA_PH*%
X80480000Y-47460000D03*
%TD*%
%TO.P,R11,1*%
%TO.N,Net-(D1-K)*%
X113500000Y-136360000D03*
%TO.P,R11,2*%
%TO.N,Net-(D1-A)*%
X113500000Y-126200000D03*
%TD*%
D23*
%TO.P,Q2,1,G*%
%TO.N,Net-(Q2-G)*%
X143980000Y-57620000D03*
D24*
%TO.P,Q2,2,D*%
%TO.N,Net-(D2-A)*%
X143980000Y-60160000D03*
%TO.P,Q2,3,S*%
%TO.N,GND_PWR*%
X143980000Y-62700000D03*
%TD*%
D20*
%TO.P,R10,1*%
%TO.N,+12V*%
X88100000Y-140170000D03*
%TO.P,R10,2*%
%TO.N,Net-(U3-SHDN)*%
X77940000Y-140170000D03*
%TD*%
%TO.P,C9,1*%
%TO.N,+12V*%
X138820000Y-80400000D03*
%TO.P,C9,2*%
%TO.N,GND_PWR*%
X133820000Y-80400000D03*
%TD*%
%TO.P,R20,1*%
%TO.N,+3.3V_PWR*%
X63970000Y-75400000D03*
%TO.P,R20,2*%
%TO.N,/SCL*%
X74130000Y-75400000D03*
%TD*%
%TO.P,C8,1*%
%TO.N,Net-(U4-OUT)*%
X82940000Y-126200000D03*
%TO.P,C8,2*%
%TO.N,GND_PWR*%
X77940000Y-126200000D03*
%TD*%
%TO.P,C24,1*%
%TO.N,+5V*%
X118580000Y-57620000D03*
%TO.P,C24,2*%
%TO.N,GND_ANA*%
X121080000Y-57620000D03*
%TD*%
D30*
%TO.P,U4,1,IN*%
%TO.N,+12V*%
X93180000Y-131320000D03*
D18*
%TO.P,U4,2,GND*%
%TO.N,GND_PWR*%
X90640000Y-131320000D03*
%TO.P,U4,3,OUT*%
%TO.N,Net-(U4-OUT)*%
X88100000Y-131320000D03*
%TD*%
D20*
%TO.P,R2,1*%
%TO.N,Net-(J7-Pin_3)*%
X113500000Y-44920000D03*
%TO.P,R2,2*%
%TO.N,/DATA_ORP*%
X113500000Y-55080000D03*
%TD*%
%TO.P,R6,1*%
%TO.N,/RTC_INT*%
X65240000Y-71590000D03*
%TO.P,R6,2*%
%TO.N,+3.3V_PWR*%
X55080000Y-71590000D03*
%TD*%
%TO.P,R7,1*%
%TO.N,Net-(Q4-G)*%
X138900000Y-75400000D03*
%TO.P,R7,2*%
%TO.N,/POMPE_2*%
X128740000Y-75400000D03*
%TD*%
%TO.P,C3,1*%
%TO.N,Net-(J7-Pin_3)*%
X108420000Y-44960000D03*
%TO.P,C3,2*%
%TO.N,GND*%
X108420000Y-47460000D03*
%TD*%
%TO.P,C1,1*%
%TO.N,Net-(J6-Pin_3)*%
X65240000Y-44920000D03*
%TO.P,C1,2*%
%TO.N,GND_ANA*%
X65240000Y-47420000D03*
%TD*%
%TO.P,C19,1*%
%TO.N,+12V*%
X138820000Y-110880000D03*
%TO.P,C19,2*%
%TO.N,GND_PWR*%
X133820000Y-110880000D03*
%TD*%
D31*
%TO.P,J11,1,Pin_1*%
%TO.N,/RTC_INT*%
X69685000Y-70955000D03*
D32*
%TO.P,J11,2,Pin_2*%
%TO.N,unconnected-(J11-Pin_2-Pad2)*%
X69685000Y-68415000D03*
%TO.P,J11,3,Pin_3*%
%TO.N,/SCL*%
X69685000Y-65875000D03*
%TO.P,J11,4,Pin_4*%
%TO.N,/SDA*%
X69685000Y-63335000D03*
%TO.P,J11,5,Pin_5*%
%TO.N,+3.3V*%
X69685000Y-60795000D03*
%TO.P,J11,6,Pin_6*%
%TO.N,GND_ANA*%
X69685000Y-58255000D03*
%TD*%
D31*
%TO.P,J3,1,Pin_1*%
%TO.N,+3.3V*%
X77432000Y-60922000D03*
D32*
%TO.P,J3,2,Pin_2*%
%TO.N,GND_ANA*%
X79972000Y-60922000D03*
%TO.P,J3,3,Pin_3*%
%TO.N,/SCL*%
X82512000Y-60922000D03*
%TO.P,J3,4,Pin_4*%
%TO.N,/SDA*%
X85052000Y-60922000D03*
%TO.P,J3,5,Pin_5*%
%TO.N,unconnected-(J3-Pin_5-Pad5)*%
X87592000Y-60922000D03*
%TO.P,J3,6,Pin_6*%
%TO.N,unconnected-(J3-Pin_6-Pad6)*%
X90132000Y-60922000D03*
%TO.P,J3,7,Pin_7*%
%TO.N,/DATA_PH*%
X92672000Y-60922000D03*
%TO.P,J3,8,Pin_8*%
%TO.N,/DATA_ORP*%
X95212000Y-60922000D03*
%TO.P,J3,9,Pin_9*%
%TO.N,unconnected-(J3-Pin_9-Pad9)*%
X97752000Y-60922000D03*
%TO.P,J3,10,Pin_10*%
%TO.N,unconnected-(J3-Pin_10-Pad10)*%
X100292000Y-60922000D03*
%TD*%
D21*
%TO.P,D7,1,K*%
%TO.N,+12V*%
X151520000Y-115960000D03*
D22*
%TO.P,D7,2,A*%
%TO.N,Net-(D7-A)*%
X151520000Y-105800000D03*
%TD*%
D33*
%TO.P,C15,1*%
%TO.N,+12V*%
X138900000Y-129837677D03*
D28*
%TO.P,C15,2*%
%TO.N,GND_PWR*%
X138900000Y-124837677D03*
%TD*%
D34*
%TO.N,/POMPE_1*%
X117310000Y-86830000D03*
X114770000Y-86830000D03*
%TO.N,/POMPE_2*%
X114770000Y-89370000D03*
X117310000Y-89370000D03*
%TO.N,/FILTRATION_A2*%
X117310000Y-103340000D03*
X114770000Y-103340000D03*
%TO.N,/ECLAIRAGE_A2*%
X114770000Y-105880000D03*
X117310000Y-105880000D03*
%TO.N,/RTC_INT*%
X67780000Y-71590000D03*
X65240000Y-72860000D03*
%TO.N,GND_PWR*%
X71173600Y-129248000D03*
D35*
X142837000Y-98260000D03*
D34*
X71173600Y-129984600D03*
D35*
X143243400Y-79083000D03*
X114516000Y-142456000D03*
X143243400Y-109563000D03*
X142913200Y-67780000D03*
X144716600Y-109563000D03*
D34*
X71173600Y-130772000D03*
D35*
X112484000Y-142456000D03*
X144716600Y-94323000D03*
X142837000Y-83020000D03*
X144716600Y-63843000D03*
X143243400Y-94323000D03*
X144716600Y-79083000D03*
X143243400Y-63843000D03*
X142837000Y-113500000D03*
%TD*%
D36*
%TO.N,+3.3V*%
X90466000Y-34506000D02*
X93260000Y-37300000D01*
X78194000Y-34506000D02*
X90466000Y-34506000D01*
X74130000Y-38570000D02*
X75400000Y-37300000D01*
X62680000Y-60795000D02*
X62680000Y-55100000D01*
X95720000Y-47460000D02*
X98300000Y-47460000D01*
X75400000Y-37300000D02*
X78194000Y-34506000D01*
X69685000Y-60795000D02*
X77305000Y-60795000D01*
X93260000Y-37300000D02*
X93260000Y-45000000D01*
X69050000Y-60160000D02*
X69685000Y-60795000D01*
X62700000Y-55080000D02*
X62700000Y-36035790D01*
X62680000Y-55100000D02*
X62700000Y-55080000D01*
X72860000Y-34760000D02*
X75400000Y-37300000D01*
X62700000Y-60815000D02*
X62680000Y-60795000D01*
X62700000Y-36035790D02*
X63975790Y-34760000D01*
D37*
X77305000Y-60795000D02*
X77432000Y-60922000D01*
D36*
X63975790Y-34760000D02*
X72860000Y-34760000D01*
X62700000Y-63777500D02*
X62700000Y-60815000D01*
D37*
X75400000Y-37300000D02*
X76351000Y-38251000D01*
D36*
X93260000Y-45000000D02*
X95720000Y-47460000D01*
X69685000Y-60795000D02*
X62680000Y-60795000D01*
D38*
%TO.N,+12V*%
X93180000Y-131320000D02*
X90680000Y-133820000D01*
D39*
X151520000Y-115960000D02*
X154140000Y-115960000D01*
X149060000Y-85560000D02*
X146440000Y-82940000D01*
D40*
X138940000Y-65280000D02*
X138900000Y-65240000D01*
D38*
X90680000Y-133820000D02*
X71590000Y-133820000D01*
D39*
X148980000Y-115960000D02*
X146440000Y-113420000D01*
X151600000Y-85560000D02*
X163487200Y-85560000D01*
X162525800Y-73545800D02*
X164452400Y-73545800D01*
X123660000Y-131280000D02*
X103340000Y-131280000D01*
D40*
X164452400Y-85327600D02*
X164300000Y-85480000D01*
D38*
X143900000Y-110880000D02*
X138820000Y-110880000D01*
D39*
X163411000Y-106689000D02*
X164452400Y-106689000D01*
D38*
X146440000Y-98180000D02*
X143900000Y-95640000D01*
D39*
X156760000Y-95640000D02*
X164452400Y-95640000D01*
X151600000Y-100800000D02*
X156760000Y-95640000D01*
X98260000Y-131280000D02*
X93220000Y-131280000D01*
D38*
X146520000Y-67780000D02*
X143980000Y-65240000D01*
D39*
X149060000Y-70320000D02*
X146520000Y-67780000D01*
X151600000Y-100800000D02*
X149060000Y-100800000D01*
D38*
X71590000Y-133820000D02*
X70320000Y-132550000D01*
X143900000Y-80400000D02*
X138820000Y-80400000D01*
D39*
X151600000Y-70320000D02*
X159300000Y-70320000D01*
X151600000Y-85560000D02*
X149060000Y-85560000D01*
X159300000Y-70320000D02*
X162525800Y-73545800D01*
D38*
X143980000Y-65240000D02*
X138980000Y-65240000D01*
D39*
X151520000Y-115960000D02*
X148980000Y-115960000D01*
X123660000Y-131280000D02*
X126200000Y-131280000D01*
D38*
X146440000Y-82940000D02*
X143900000Y-80400000D01*
X93180000Y-131320000D02*
X93180000Y-135090000D01*
D40*
X164452400Y-84594800D02*
X164452400Y-85327600D01*
D39*
X151600000Y-70320000D02*
X149060000Y-70320000D01*
X154140000Y-115960000D02*
X163411000Y-106689000D01*
X149060000Y-100800000D02*
X146440000Y-98180000D01*
D38*
X93180000Y-135090000D02*
X88100000Y-140170000D01*
D39*
X103340000Y-131280000D02*
X98260000Y-131280000D01*
D38*
X143900000Y-95640000D02*
X138820000Y-95640000D01*
X146440000Y-113420000D02*
X143900000Y-110880000D01*
D39*
X163487200Y-85560000D02*
X164452400Y-84594800D01*
D38*
%TO.N,Net-(D2-A)*%
X162525800Y-68545800D02*
X154140000Y-60160000D01*
X164452400Y-68545800D02*
X162525800Y-68545800D01*
X154140000Y-60160000D02*
X151600000Y-60160000D01*
X151600000Y-60160000D02*
X143980000Y-60160000D01*
%TO.N,Net-(D4-A)*%
X151600000Y-75400000D02*
X156680000Y-80480000D01*
X156680000Y-80480000D02*
X163567200Y-80480000D01*
D39*
X151600000Y-75400000D02*
X151346000Y-75146000D01*
D38*
X163567200Y-80480000D02*
X164452400Y-79594800D01*
X151600000Y-75400000D02*
X143980000Y-75400000D01*
D39*
X144234000Y-75146000D02*
X143980000Y-75400000D01*
D36*
%TO.N,/DATA_DS18B20*%
X79210000Y-46864764D02*
X79884764Y-46190000D01*
X84290000Y-46190000D02*
X85560000Y-47460000D01*
D41*
X88862000Y-58890000D02*
X88862000Y-63462000D01*
D36*
X79210000Y-49238000D02*
X79210000Y-46864764D01*
X88862000Y-58890000D02*
X79210000Y-49238000D01*
X88260000Y-37300000D02*
X88260000Y-44760000D01*
X88100000Y-64224000D02*
X88862000Y-63462000D01*
X88100000Y-83020000D02*
X88100000Y-64224000D01*
X79884764Y-46190000D02*
X84290000Y-46190000D01*
X88260000Y-44760000D02*
X85560000Y-47460000D01*
%TO.N,/DATA_PH*%
X80480000Y-48730000D02*
X92672000Y-60922000D01*
X80480000Y-47460000D02*
X80480000Y-48730000D01*
%TO.N,/DATA_ORP*%
X113246000Y-57874000D02*
X107150000Y-63970000D01*
X113500000Y-57874000D02*
X113246000Y-57874000D01*
X107150000Y-63970000D02*
X98260000Y-63970000D01*
X113500000Y-55080000D02*
X113500000Y-57874000D01*
X98260000Y-63970000D02*
X95212000Y-60922000D01*
D38*
%TO.N,Net-(Q2-G)*%
X141440000Y-57620000D02*
X138900000Y-55080000D01*
X143980000Y-57620000D02*
X141440000Y-57620000D01*
X141440000Y-57620000D02*
X138900000Y-60160000D01*
%TO.N,Net-(Q4-G)*%
X141440000Y-72860000D02*
X138900000Y-75400000D01*
X143980000Y-72860000D02*
X141440000Y-72860000D01*
X141440000Y-72860000D02*
X138900000Y-70320000D01*
D36*
%TO.N,/POMPE_1*%
X122390000Y-81750000D02*
X117310000Y-86830000D01*
X128740000Y-62700000D02*
X122390000Y-69050000D01*
X128740000Y-60160000D02*
X128740000Y-62700000D01*
X89370000Y-86830000D02*
X85560000Y-83020000D01*
X114770000Y-86830000D02*
X89370000Y-86830000D01*
X122390000Y-69050000D02*
X122390000Y-81750000D01*
%TO.N,/POMPE_2*%
X128740000Y-77940000D02*
X117310000Y-89370000D01*
X89370000Y-89370000D02*
X114770000Y-89370000D01*
X83020000Y-83020000D02*
X89370000Y-89370000D01*
X128740000Y-75400000D02*
X128740000Y-77940000D01*
D38*
%TO.N,Net-(U3-SHDN)*%
X75390000Y-140170000D02*
X70310000Y-135090000D01*
X77940000Y-140170000D02*
X75390000Y-140170000D01*
%TO.N,Net-(D1-A)*%
X118580000Y-127470000D02*
X114770000Y-127470000D01*
X123660000Y-128740000D02*
X119850000Y-128740000D01*
X113500000Y-126200000D02*
X108420000Y-126200000D01*
X114770000Y-127470000D02*
X113500000Y-126200000D01*
X119850000Y-128740000D02*
X118580000Y-127470000D01*
D39*
%TO.N,Net-(D1-K)*%
X114770000Y-135090000D02*
X113500000Y-136360000D01*
X123660000Y-133820000D02*
X119850000Y-133820000D01*
X118580000Y-135090000D02*
X114770000Y-135090000D01*
D38*
X123650000Y-133830000D02*
X123660000Y-133820000D01*
D39*
X123660000Y-141440000D02*
X123660000Y-133820000D01*
X123720000Y-145320000D02*
X123720000Y-141500000D01*
X119850000Y-133820000D02*
X118580000Y-135090000D01*
X123720000Y-141500000D02*
X123660000Y-141440000D01*
D36*
%TO.N,Net-(J6-Pin_3)*%
X67780000Y-44920000D02*
X70320000Y-47460000D01*
X65400000Y-37300000D02*
X65400000Y-44760000D01*
X65240000Y-44920000D02*
X67780000Y-44920000D01*
D37*
X65400000Y-44760000D02*
X65240000Y-44920000D01*
D40*
X65320000Y-44840000D02*
X65240000Y-44920000D01*
D36*
%TO.N,/SDA*%
X74130000Y-79210000D02*
X77940000Y-83020000D01*
X85052000Y-60922000D02*
X77940000Y-68034000D01*
X77940000Y-68034000D02*
X77940000Y-83020000D01*
X77940000Y-71590000D02*
X77940000Y-83020000D01*
X69685000Y-63335000D02*
X77940000Y-71590000D01*
%TO.N,Net-(J7-Pin_3)*%
X108420000Y-44960000D02*
X108420000Y-37380000D01*
D38*
X108420000Y-37380000D02*
X108500000Y-37300000D01*
X113460000Y-44960000D02*
X113500000Y-44920000D01*
D36*
X108420000Y-44960000D02*
X113460000Y-44960000D01*
%TO.N,/SCL*%
X67018000Y-63462000D02*
X67018000Y-67780000D01*
X67018000Y-73622000D02*
X70320000Y-76924000D01*
X70320000Y-76924000D02*
X70320000Y-83020000D01*
X74384000Y-63716000D02*
X72752000Y-62084000D01*
X69685000Y-65875000D02*
X67780000Y-67780000D01*
X74130000Y-75400000D02*
X71844000Y-75400000D01*
X82512000Y-60922000D02*
X79718000Y-63716000D01*
X79718000Y-63716000D02*
X74384000Y-63716000D01*
D37*
X72752000Y-62084000D02*
X68396000Y-62084000D01*
D36*
X71844000Y-75400000D02*
X70320000Y-76924000D01*
X67780000Y-67780000D02*
X67018000Y-67780000D01*
X68396000Y-62084000D02*
X67018000Y-63462000D01*
X67018000Y-67780000D02*
X67018000Y-73622000D01*
D38*
%TO.N,+5V*%
X118580000Y-57620000D02*
X118580000Y-52580000D01*
X118580000Y-52580000D02*
X118620000Y-52540000D01*
X118620000Y-51310000D02*
X118500000Y-51190000D01*
X117350000Y-38450000D02*
X118500000Y-37300000D01*
X118620000Y-52540000D02*
X118620000Y-51310000D01*
X118580000Y-63777500D02*
X118580000Y-57620000D01*
X118500000Y-51190000D02*
X118500000Y-37300000D01*
%TO.N,Net-(D6-A)*%
X164452400Y-90640000D02*
X151600000Y-90640000D01*
X151600000Y-90640000D02*
X143980000Y-90640000D01*
%TO.N,Net-(D7-A)*%
X159300000Y-105800000D02*
X163411000Y-101689000D01*
X163411000Y-101689000D02*
X164452400Y-101689000D01*
X151520000Y-105800000D02*
X159300000Y-105800000D01*
X151600000Y-105880000D02*
X143980000Y-105880000D01*
%TO.N,Net-(Q6-G)*%
X143980000Y-88100000D02*
X141440000Y-88100000D01*
X141440000Y-88100000D02*
X138900000Y-85560000D01*
X138900000Y-90640000D02*
X141440000Y-88100000D01*
%TO.N,Net-(Q7-G)*%
X143980000Y-103340000D02*
X141440000Y-103340000D01*
X141440000Y-103340000D02*
X138900000Y-105880000D01*
X141440000Y-103340000D02*
X138900000Y-100800000D01*
D36*
%TO.N,/FILTRATION_A2*%
X128740000Y-91910000D02*
X117310000Y-103340000D01*
X128740000Y-90640000D02*
X128740000Y-91910000D01*
X90640000Y-103340000D02*
X114770000Y-103340000D01*
X85560000Y-108420000D02*
X90640000Y-103340000D01*
%TO.N,/ECLAIRAGE_A2*%
X128740000Y-105880000D02*
X117310000Y-105880000D01*
X90640000Y-105880000D02*
X114770000Y-105880000D01*
X88100000Y-108420000D02*
X90640000Y-105880000D01*
%TO.N,/RTC_INT*%
X67780000Y-77940000D02*
X69050000Y-79210000D01*
X65240000Y-71590000D02*
X65240000Y-72860000D01*
X65240000Y-72860000D02*
X67780000Y-75400000D01*
X67780000Y-75400000D02*
X67780000Y-77940000D01*
X68415000Y-70955000D02*
X69685000Y-70955000D01*
X67780000Y-71590000D02*
X68415000Y-70955000D01*
X69050000Y-107150000D02*
X70320000Y-108420000D01*
X69050000Y-79210000D02*
X69050000Y-107150000D01*
D38*
%TO.N,/RESET_BUTTON*%
X79210000Y-118000000D02*
X81496000Y-115714000D01*
X81496000Y-109436000D02*
X80480000Y-108420000D01*
X81496000Y-115714000D02*
X81496000Y-109436000D01*
D36*
%TO.N,GND_PWR*%
X71173600Y-129984600D02*
X71148200Y-130010000D01*
D42*
X143243400Y-79083000D02*
X143243400Y-78676600D01*
X144716600Y-109156600D02*
X143980000Y-108420000D01*
X144716600Y-63436600D02*
X143980000Y-62700000D01*
D36*
X71148200Y-130010000D02*
X70310000Y-130010000D01*
D42*
X143980000Y-62700000D02*
X143980000Y-63335000D01*
X144716600Y-93916600D02*
X143980000Y-93180000D01*
X143243400Y-78676600D02*
X143980000Y-77940000D01*
X143243400Y-109156600D02*
X143980000Y-108420000D01*
X143243400Y-63843000D02*
X143243400Y-63436600D01*
D36*
X71173600Y-130772000D02*
X71072000Y-130772000D01*
D40*
X142917000Y-98180000D02*
X143940000Y-98180000D01*
X142837000Y-98260000D02*
X142917000Y-98180000D01*
D42*
X143243400Y-109563000D02*
X143243400Y-109156600D01*
X143243400Y-63436600D02*
X143980000Y-62700000D01*
X144716600Y-63843000D02*
X144716600Y-63436600D01*
X143243400Y-93916600D02*
X143980000Y-93180000D01*
X143243400Y-94323000D02*
X143243400Y-93916600D01*
X144716600Y-109563000D02*
X144716600Y-109156600D01*
D40*
X144020000Y-67780000D02*
X142913200Y-67780000D01*
D36*
X71072000Y-130772000D02*
X70310000Y-130010000D01*
D42*
X143980000Y-108420000D02*
X143980000Y-109080400D01*
X144716600Y-94323000D02*
X144716600Y-93916600D01*
X144716600Y-79083000D02*
X144716600Y-78676600D01*
X144716600Y-78676600D02*
X143980000Y-77940000D01*
X143980000Y-63176402D02*
X143980000Y-62700000D01*
D38*
%TO.N,Net-(U4-OUT)*%
X116040000Y-106563628D02*
X116040000Y-69242500D01*
X90680000Y-128740000D02*
X93863628Y-128740000D01*
X82980000Y-126240000D02*
X82940000Y-126200000D01*
X82980000Y-131280000D02*
X82980000Y-126240000D01*
X88100000Y-131320000D02*
X83020000Y-131320000D01*
X116040000Y-69242500D02*
X118580000Y-66702500D01*
X83020000Y-131320000D02*
X82980000Y-131280000D01*
X93863628Y-128740000D02*
X116040000Y-106563628D01*
X88100000Y-131320000D02*
X90680000Y-128740000D01*
D39*
%TO.N,Net-(J9-Pin_1)*%
X136440000Y-146520000D02*
X128820000Y-146520000D01*
D36*
%TO.N,+3.3V_PWR*%
X63970000Y-75400000D02*
X63970000Y-79210000D01*
X67740000Y-124900000D02*
X67740000Y-123660000D01*
X56350000Y-111000000D02*
X53810000Y-108460000D01*
X72710000Y-113610000D02*
X72710000Y-113500000D01*
X67740000Y-118580000D02*
X72710000Y-113610000D01*
X67740000Y-123660000D02*
X67740000Y-118580000D01*
X53810000Y-72860000D02*
X55080000Y-71590000D01*
X67740000Y-118580000D02*
X67740000Y-113500000D01*
X65240000Y-111000000D02*
X65240000Y-108420000D01*
X53810000Y-108460000D02*
X53810000Y-72860000D01*
X63970000Y-79210000D02*
X53810000Y-79210000D01*
X55080000Y-71590000D02*
X57812500Y-71590000D01*
X67740000Y-113500000D02*
X65240000Y-111000000D01*
X65240000Y-111000000D02*
X56350000Y-111000000D01*
X70310000Y-127470000D02*
X67740000Y-124900000D01*
X57812500Y-71590000D02*
X62700000Y-66702500D01*
%TD*%
%TA.AperFunction,Conductor*%
%TO.N,+12V*%
G36*
X168053039Y-66357362D02*
G01*
X168098794Y-66410166D01*
X168110000Y-66461677D01*
X168110000Y-135174677D01*
X168090315Y-135241716D01*
X168037511Y-135287471D01*
X167986000Y-135298677D01*
X125584500Y-135298677D01*
X125517461Y-135278992D01*
X125471706Y-135226188D01*
X125460500Y-135174677D01*
X125460500Y-133701995D01*
X125460500Y-133701989D01*
X125429693Y-133467986D01*
X125368606Y-133240007D01*
X125278284Y-133021951D01*
X125278282Y-133021948D01*
X125278280Y-133021943D01*
X125236118Y-132948918D01*
X125160273Y-132817550D01*
X125016592Y-132630301D01*
X125016587Y-132630295D01*
X124849704Y-132463412D01*
X124849697Y-132463406D01*
X124662454Y-132319730D01*
X124662453Y-132319729D01*
X124662450Y-132319727D01*
X124580957Y-132272677D01*
X124458056Y-132201719D01*
X124458045Y-132201714D01*
X124239993Y-132111394D01*
X124012010Y-132050306D01*
X123778020Y-132019501D01*
X123778017Y-132019500D01*
X123778011Y-132019500D01*
X122514000Y-132019500D01*
X122446961Y-131999815D01*
X122401206Y-131947011D01*
X122390000Y-131895500D01*
X122390000Y-130606399D01*
X122409685Y-130539360D01*
X122462489Y-130493605D01*
X122527883Y-130483179D01*
X122615042Y-130492999D01*
X122615043Y-130493000D01*
X122615046Y-130493000D01*
X124704957Y-130493000D01*
X124704958Y-130492999D01*
X124772104Y-130485434D01*
X124839249Y-130477869D01*
X124839252Y-130477868D01*
X124839255Y-130477868D01*
X125009522Y-130418289D01*
X125162262Y-130322316D01*
X125289816Y-130194762D01*
X125385789Y-130042022D01*
X125445368Y-129871755D01*
X125460500Y-129737454D01*
X125460500Y-127742546D01*
X125445368Y-127608245D01*
X125438552Y-127588766D01*
X125394416Y-127462631D01*
X125390855Y-127392853D01*
X125425584Y-127332225D01*
X125487577Y-127299998D01*
X125511458Y-127297677D01*
X130264782Y-127297677D01*
X130331821Y-127317362D01*
X130337656Y-127321351D01*
X130441155Y-127396547D01*
X130522468Y-127437978D01*
X130665616Y-127510916D01*
X130665618Y-127510916D01*
X130665621Y-127510918D01*
X130905215Y-127588767D01*
X131154038Y-127628177D01*
X131154039Y-127628177D01*
X131405961Y-127628177D01*
X131405962Y-127628177D01*
X131654785Y-127588767D01*
X131894379Y-127510918D01*
X132118845Y-127396547D01*
X132222333Y-127321358D01*
X132288139Y-127297879D01*
X132295218Y-127297677D01*
X160490000Y-127297677D01*
X160490000Y-106500546D01*
X160509685Y-106433507D01*
X160526315Y-106412869D01*
X163206813Y-103732370D01*
X163268134Y-103698887D01*
X163337826Y-103703871D01*
X163356492Y-103712666D01*
X163432724Y-103756679D01*
X163432729Y-103756681D01*
X163432732Y-103756683D01*
X163570900Y-103813914D01*
X163711339Y-103872086D01*
X163711340Y-103872086D01*
X163711342Y-103872087D01*
X164002632Y-103950138D01*
X164301617Y-103989500D01*
X164301624Y-103989500D01*
X164603176Y-103989500D01*
X164603183Y-103989500D01*
X164902168Y-103950138D01*
X165193458Y-103872087D01*
X165472068Y-103756683D01*
X165733232Y-103605900D01*
X165972480Y-103422319D01*
X166185719Y-103209080D01*
X166369300Y-102969832D01*
X166520083Y-102708668D01*
X166635487Y-102430058D01*
X166713538Y-102138768D01*
X166752900Y-101839783D01*
X166752900Y-101538217D01*
X166713538Y-101239232D01*
X166635487Y-100947942D01*
X166520083Y-100669332D01*
X166445471Y-100540101D01*
X166369300Y-100408168D01*
X166185720Y-100168921D01*
X166185714Y-100168914D01*
X165972485Y-99955685D01*
X165972478Y-99955679D01*
X165733231Y-99772099D01*
X165472071Y-99621318D01*
X165472061Y-99621314D01*
X165193460Y-99505913D01*
X164902166Y-99427861D01*
X164603193Y-99388501D01*
X164603188Y-99388500D01*
X164603183Y-99388500D01*
X164301617Y-99388500D01*
X164301611Y-99388500D01*
X164301606Y-99388501D01*
X164002633Y-99427861D01*
X163711339Y-99505913D01*
X163432738Y-99621314D01*
X163432728Y-99621318D01*
X163171568Y-99772099D01*
X162932321Y-99955679D01*
X162932314Y-99955685D01*
X162719085Y-100168914D01*
X162719079Y-100168921D01*
X162535499Y-100408168D01*
X162384718Y-100669328D01*
X162384714Y-100669338D01*
X162269311Y-100947946D01*
X162261967Y-100975354D01*
X162229874Y-101030939D01*
X160701681Y-102559133D01*
X160640358Y-102592618D01*
X160570666Y-102587634D01*
X160514733Y-102545762D01*
X160490316Y-102480298D01*
X160490000Y-102471452D01*
X160490000Y-92064500D01*
X160509685Y-91997461D01*
X160562489Y-91951706D01*
X160614000Y-91940500D01*
X162489442Y-91940500D01*
X162556481Y-91960185D01*
X162587818Y-91989014D01*
X162719079Y-92160078D01*
X162719085Y-92160085D01*
X162932314Y-92373314D01*
X162932321Y-92373320D01*
X163171568Y-92556900D01*
X163432728Y-92707681D01*
X163432729Y-92707681D01*
X163432732Y-92707683D01*
X163618472Y-92784619D01*
X163711339Y-92823086D01*
X163711340Y-92823086D01*
X163711342Y-92823087D01*
X164002632Y-92901138D01*
X164301617Y-92940500D01*
X164301624Y-92940500D01*
X164603176Y-92940500D01*
X164603183Y-92940500D01*
X164902168Y-92901138D01*
X165193458Y-92823087D01*
X165472068Y-92707683D01*
X165733232Y-92556900D01*
X165972480Y-92373319D01*
X166185719Y-92160080D01*
X166369300Y-91920832D01*
X166520083Y-91659668D01*
X166635487Y-91381058D01*
X166713538Y-91089768D01*
X166752900Y-90790783D01*
X166752900Y-90489217D01*
X166713538Y-90190232D01*
X166635487Y-89898942D01*
X166520083Y-89620332D01*
X166369300Y-89359168D01*
X166316982Y-89290986D01*
X166185720Y-89119921D01*
X166185714Y-89119914D01*
X165972485Y-88906685D01*
X165972478Y-88906679D01*
X165733231Y-88723099D01*
X165472071Y-88572318D01*
X165472061Y-88572314D01*
X165193460Y-88456913D01*
X164902166Y-88378861D01*
X164603193Y-88339501D01*
X164603188Y-88339500D01*
X164603183Y-88339500D01*
X164301617Y-88339500D01*
X164301611Y-88339500D01*
X164301606Y-88339501D01*
X164002633Y-88378861D01*
X163711339Y-88456913D01*
X163432738Y-88572314D01*
X163432728Y-88572318D01*
X163171568Y-88723099D01*
X162932321Y-88906679D01*
X162932314Y-88906685D01*
X162719085Y-89119914D01*
X162719079Y-89119921D01*
X162587818Y-89290986D01*
X162531390Y-89332189D01*
X162489442Y-89339500D01*
X160614000Y-89339500D01*
X160546961Y-89319815D01*
X160501206Y-89267011D01*
X160490000Y-89215500D01*
X160490000Y-81904500D01*
X160509685Y-81837461D01*
X160562489Y-81791706D01*
X160614000Y-81780500D01*
X163669551Y-81780500D01*
X163669552Y-81780500D01*
X163675908Y-81779493D01*
X163727400Y-81782189D01*
X164002632Y-81855938D01*
X164301617Y-81895300D01*
X164301624Y-81895300D01*
X164603176Y-81895300D01*
X164603183Y-81895300D01*
X164902168Y-81855938D01*
X165193458Y-81777887D01*
X165472068Y-81662483D01*
X165733232Y-81511700D01*
X165972480Y-81328119D01*
X166185719Y-81114880D01*
X166369300Y-80875632D01*
X166520083Y-80614468D01*
X166635487Y-80335858D01*
X166713538Y-80044568D01*
X166752900Y-79745583D01*
X166752900Y-79444017D01*
X166713538Y-79145032D01*
X166635487Y-78853742D01*
X166629343Y-78838910D01*
X166578904Y-78717139D01*
X166520083Y-78575132D01*
X166369300Y-78313968D01*
X166185719Y-78074720D01*
X166185714Y-78074714D01*
X165972485Y-77861485D01*
X165972478Y-77861479D01*
X165733231Y-77677899D01*
X165472071Y-77527118D01*
X165472061Y-77527114D01*
X165193460Y-77411713D01*
X164902166Y-77333661D01*
X164603193Y-77294301D01*
X164603188Y-77294300D01*
X164603183Y-77294300D01*
X164301617Y-77294300D01*
X164301611Y-77294300D01*
X164301606Y-77294301D01*
X164002633Y-77333661D01*
X163711339Y-77411713D01*
X163432738Y-77527114D01*
X163432728Y-77527118D01*
X163171568Y-77677899D01*
X162932321Y-77861479D01*
X162932314Y-77861485D01*
X162719085Y-78074714D01*
X162719079Y-78074721D01*
X162535499Y-78313968D01*
X162384718Y-78575128D01*
X162384714Y-78575138D01*
X162269314Y-78853737D01*
X162269313Y-78853742D01*
X162206652Y-79087595D01*
X162170288Y-79147254D01*
X162107441Y-79177783D01*
X162086878Y-79179500D01*
X160614000Y-79179500D01*
X160546961Y-79159815D01*
X160501206Y-79107011D01*
X160490000Y-79055500D01*
X160490000Y-68648547D01*
X160509685Y-68581508D01*
X160562489Y-68535753D01*
X160631647Y-68525809D01*
X160695203Y-68554834D01*
X160701681Y-68560866D01*
X161678581Y-69537766D01*
X161844189Y-69658087D01*
X161935385Y-69704553D01*
X162026581Y-69751020D01*
X162123923Y-69782648D01*
X162221265Y-69814277D01*
X162423448Y-69846300D01*
X162489442Y-69846300D01*
X162556481Y-69865985D01*
X162587818Y-69894814D01*
X162719079Y-70065878D01*
X162719085Y-70065885D01*
X162932314Y-70279114D01*
X162932321Y-70279120D01*
X163171568Y-70462700D01*
X163432728Y-70613481D01*
X163432729Y-70613481D01*
X163432732Y-70613483D01*
X163618472Y-70690419D01*
X163711339Y-70728886D01*
X163711340Y-70728886D01*
X163711342Y-70728887D01*
X164002632Y-70806938D01*
X164301617Y-70846300D01*
X164301624Y-70846300D01*
X164603176Y-70846300D01*
X164603183Y-70846300D01*
X164902168Y-70806938D01*
X165193458Y-70728887D01*
X165472068Y-70613483D01*
X165733232Y-70462700D01*
X165972480Y-70279119D01*
X166185719Y-70065880D01*
X166369300Y-69826632D01*
X166520083Y-69565468D01*
X166635487Y-69286858D01*
X166713538Y-68995568D01*
X166752900Y-68696583D01*
X166752900Y-68395017D01*
X166713538Y-68096032D01*
X166635487Y-67804742D01*
X166520083Y-67526132D01*
X166369300Y-67264968D01*
X166185719Y-67025720D01*
X166185714Y-67025714D01*
X165972485Y-66812485D01*
X165972478Y-66812479D01*
X165733231Y-66628899D01*
X165629593Y-66569064D01*
X165581378Y-66518497D01*
X165568154Y-66449890D01*
X165594122Y-66385026D01*
X165651036Y-66344497D01*
X165691593Y-66337677D01*
X167986000Y-66337677D01*
X168053039Y-66357362D01*
G37*
%TD.AperFunction*%
%TD*%
M02*
