M48
; DRILL file {KiCad 9.0.7} date 2026-02-22T15:51:47+0100
; FORMAT={-:-/ absolute / metric / decimal}
; #@! TF.CreationDate,2026-02-22T15:51:47+01:00
; #@! TF.GenerationSoftware,Kicad,Pcbnew,9.0.7
; #@! TF.FileFunction,Plated,1,2,PTH
FMAT,2
METRIC
; #@! TA.AperFunction,Plated,PTH,ViaDrill
T1C0.300
; #@! TA.AperFunction,Plated,PTH,ViaDrill
T2C0.600
; #@! TA.AperFunction,Plated,PTH,ComponentDrill
T3C0.710
; #@! TA.AperFunction,Plated,PTH,ComponentDrill
T4C0.800
; #@! TA.AperFunction,Plated,PTH,ComponentDrill
T5C1.000
; #@! TA.AperFunction,Plated,PTH,ComponentDrill
T6C1.020
; #@! TA.AperFunction,Plated,PTH,ComponentDrill
T7C1.100
; #@! TA.AperFunction,Plated,PTH,ComponentDrill
T8C1.200
; #@! TA.AperFunction,Plated,PTH,ComponentDrill
T9C1.300
%
G90
G05
T1
X65.24Y-72.86
X67.78Y-71.59
X71.174Y-129.248
X71.174Y-129.985
X71.174Y-130.772
X112.484Y-142.456
X114.516Y-142.456
X114.77Y-86.83
X114.77Y-89.37
X114.77Y-103.34
X114.77Y-105.88
X117.31Y-86.83
X117.31Y-89.37
X117.31Y-103.34
X117.31Y-105.88
T2
X142.837Y-83.02
X142.837Y-98.26
X142.837Y-113.5
X142.913Y-67.78
X143.243Y-63.843
X143.243Y-79.083
X143.243Y-94.323
X143.243Y-109.563
X144.717Y-63.843
X144.717Y-79.083
X144.717Y-94.323
X144.717Y-109.563
T3
X123.72Y-145.32
X128.82Y-146.52
T4
X55.08Y-71.59
X57.7Y-55.08
X60.18Y-60.795
X62.68Y-60.795
X62.7Y-55.08
X62.74Y-118.58
X63.97Y-75.4
X63.97Y-79.21
X65.24Y-44.92
X65.24Y-47.42
X65.24Y-71.59
X65.24Y-83.02
X65.24Y-108.42
X65.24Y-111.0
X65.24Y-113.5
X65.24Y-123.66
X67.74Y-118.58
X67.74Y-123.66
X67.78Y-83.02
X67.78Y-108.42
X70.31Y-130.01
X70.32Y-47.46
X70.32Y-83.02
X70.32Y-108.42
X72.86Y-83.02
X72.86Y-108.42
X74.13Y-75.4
X74.13Y-79.21
X75.4Y-83.02
X75.4Y-108.42
X77.94Y-83.02
X77.94Y-108.42
X77.94Y-126.2
X77.94Y-140.17
X80.48Y-47.46
X80.48Y-83.02
X80.48Y-108.42
X80.48Y-131.28
X82.94Y-126.2
X82.98Y-131.28
X83.02Y-83.02
X83.02Y-108.42
X85.56Y-47.46
X85.56Y-83.02
X85.56Y-108.42
X88.1Y-83.02
X88.1Y-108.42
X88.1Y-140.17
X90.64Y-83.02
X90.64Y-108.42
X93.18Y-83.02
X93.18Y-108.42
X95.72Y-47.46
X95.72Y-83.02
X95.72Y-108.42
X98.26Y-83.02
X98.26Y-108.42
X98.26Y-131.28
X98.26Y-133.78
X98.3Y-47.46
X100.8Y-47.46
X100.8Y-83.02
X100.8Y-108.42
X103.34Y-57.874
X103.34Y-83.02
X103.34Y-108.42
X103.34Y-131.28
X103.34Y-136.28
X105.88Y-83.02
X105.88Y-108.42
X108.417Y-83.024
X108.42Y-44.96
X108.42Y-47.46
X108.42Y-108.42
X108.42Y-126.2
X108.42Y-136.36
X110.957Y-83.024
X110.96Y-108.42
X113.5Y-44.92
X113.5Y-55.08
X113.5Y-57.874
X113.5Y-126.2
X113.5Y-136.36
X118.58Y-57.62
X118.58Y-127.47
X118.58Y-135.09
X118.62Y-52.54
X121.08Y-57.62
X123.62Y-52.54
X128.74Y-55.08
X128.74Y-60.16
X128.74Y-70.32
X128.74Y-75.4
X128.74Y-85.56
X128.74Y-90.64
X128.74Y-100.8
X128.74Y-105.88
X131.28Y-126.028
X131.28Y-128.528
X133.82Y-80.4
X133.82Y-95.64
X133.82Y-110.88
X133.98Y-65.24
X138.82Y-80.4
X138.82Y-95.64
X138.82Y-110.88
X138.9Y-55.08
X138.9Y-60.16
X138.9Y-70.32
X138.9Y-75.4
X138.9Y-85.56
X138.9Y-90.64
X138.9Y-100.8
X138.9Y-105.88
X138.98Y-65.24
X143.94Y-82.94
X143.94Y-98.18
X143.94Y-113.42
X144.02Y-67.78
X146.44Y-82.94
X146.44Y-98.18
X146.44Y-113.42
X146.52Y-67.78
T5
X55.08Y-63.97
X55.08Y-66.57
X69.685Y-58.255
X69.685Y-60.795
X69.685Y-63.335
X69.685Y-65.875
X69.685Y-68.415
X69.685Y-70.955
X77.432Y-60.922
X79.972Y-60.922
X82.512Y-60.922
X85.052Y-60.922
X87.592Y-60.922
X88.1Y-131.32
X90.132Y-60.922
X90.64Y-131.32
X92.672Y-60.922
X93.18Y-131.32
X95.212Y-60.922
X97.752Y-60.922
X100.292Y-60.922
X138.9Y-124.838
X138.9Y-129.838
T6
X70.31Y-127.47
X70.31Y-135.09
X70.32Y-132.55
T7
X72.71Y-113.5
X72.71Y-118.0
X79.21Y-113.5
X79.21Y-118.0
X123.66Y-128.74
X123.66Y-131.28
X123.66Y-133.82
X143.98Y-57.62
X143.98Y-60.16
X143.98Y-62.7
X143.98Y-72.86
X143.98Y-75.4
X143.98Y-77.94
X143.98Y-88.1
X143.98Y-90.64
X143.98Y-93.18
X143.98Y-103.34
X143.98Y-105.88
X143.98Y-108.42
T8
X70.31Y-137.63
X113.5Y-141.44
X123.66Y-141.44
X151.52Y-105.8
X151.52Y-115.96
X151.6Y-60.16
X151.6Y-70.32
X151.6Y-75.4
X151.6Y-85.56
X151.6Y-90.64
X151.6Y-100.8
T9
X65.4Y-37.3
X70.4Y-37.3
X75.4Y-37.3
X88.26Y-37.3
X93.26Y-37.3
X98.26Y-37.3
X108.5Y-37.3
X113.5Y-37.3
X118.5Y-37.3
X136.44Y-146.52
X141.44Y-146.52
X164.452Y-68.546
X164.452Y-73.546
X164.452Y-79.595
X164.452Y-84.595
X164.452Y-90.64
X164.452Y-95.64
X164.452Y-101.689
X164.452Y-106.689
M30
