<?xml version="1.0" encoding="UTF-8"?>
<svg xmlns="http://www.w3.org/2000/svg" width="192" height="192" viewBox="0 0 192 192">
  <title>Pool logo (vectorized)</title>
  <desc>Auto-vectorized from provided PNG. Gradients are approximated with a limited color palette.</desc>
  <g fill-rule="evenodd" transform="scale(0.25)">
    <path d="M 619.00 98.00 L 618.00 102.00 L 615.00 103.00 L 595.00 133.00 L 591.00 135.00 L 586.00 145.00 L 559.00 179.00 L 554.00 189.00 L 547.00 195.00 L 539.00 209.00 L 535.00 212.00 L 535.00 215.00 L 575.00 254.00 L 589.00 252.00 L 592.00 249.00 L 597.00 248.00 L 599.00 245.00 L 608.00 244.00 L 611.00 241.00 L 617.00 240.00 L 621.00 237.00 L 626.00 237.00 L 632.00 233.00 L 650.00 228.00 L 653.00 225.00 L 658.00 225.00 L 674.00 218.00 L 677.00 215.00 L 686.00 214.00 L 688.00 216.00 L 688.00 219.00 L 672.00 237.00 L 603.00 301.00 L 606.00 305.00 L 611.00 323.00 L 614.00 325.00 L 615.00 336.00 L 618.00 340.00 L 618.00 346.00 L 622.00 354.00 L 623.00 372.00 L 626.00 376.00 L 628.00 425.00 L 632.00 429.00 L 655.00 429.00 L 657.00 431.00 L 656.00 432.00 L 675.00 433.00 L 678.00 436.00 L 696.00 437.00 L 703.00 441.00 L 708.00 441.00 L 717.00 445.00 L 724.00 445.00 L 728.00 449.00 L 736.00 449.00 L 740.00 453.00 L 745.00 453.00 L 749.00 457.00 L 754.00 457.00 L 757.00 461.00 L 761.00 460.00 L 763.00 457.00 L 761.00 455.00 L 764.00 451.00 L 765.00 428.00 L 767.00 420.00 L 767.00 348.00 L 765.00 346.00 L 764.00 322.00 L 761.00 316.00 L 761.00 309.00 L 757.00 302.00 L 756.00 289.00 L 753.00 286.00 L 753.00 281.00 L 749.00 275.00 L 748.00 266.00 L 744.00 260.00 L 740.00 247.00 L 736.00 244.00 L 736.00 238.00 L 729.00 229.00 L 729.00 225.00 L 721.00 213.00 L 720.00 208.00 L 717.00 206.00 L 712.00 195.00 L 708.00 193.00 L 708.00 189.00 L 701.00 182.00 L 696.00 172.00 L 681.00 156.00 L 680.00 152.00 L 672.00 143.00 L 668.00 141.00 L 668.00 139.00 L 644.00 114.00 L 629.00 102.00 L 627.00 98.00 Z " fill="#f67912"/>
    <path d="M 720.00 526.00 L 712.00 526.00 L 708.00 528.00 L 704.00 523.00 L 711.00 521.00 L 706.00 521.00 L 694.00 525.00 L 687.00 525.00 L 690.00 528.00 L 683.00 530.00 L 678.00 529.00 L 678.00 525.00 L 674.00 529.00 L 667.00 529.00 L 657.00 533.00 L 660.00 535.00 L 657.00 537.00 L 652.00 537.00 L 652.00 533.00 L 648.00 537.00 L 640.00 537.00 L 636.00 541.00 L 632.00 541.00 L 629.00 545.00 L 624.00 545.00 L 626.00 545.00 L 628.00 547.00 L 621.00 549.00 L 620.00 547.00 L 619.00 549.00 L 608.00 553.00 L 611.00 555.00 L 608.00 557.00 L 605.00 557.00 L 604.00 555.00 L 589.00 562.00 L 587.00 565.00 L 581.00 565.00 L 573.00 572.00 L 566.00 573.00 L 563.00 577.00 L 550.00 581.00 L 547.00 585.00 L 539.00 585.00 L 535.00 589.00 L 530.00 590.00 L 528.00 593.00 L 523.00 593.00 L 525.00 594.00 L 523.00 597.00 L 520.00 597.00 L 518.00 595.00 L 519.00 593.00 L 516.00 597.00 L 510.00 598.00 L 507.00 601.00 L 498.00 601.00 L 495.00 605.00 L 482.00 606.00 L 479.00 609.00 L 472.00 609.00 L 468.00 613.00 L 450.00 613.00 L 447.00 617.00 L 431.00 618.00 L 423.00 622.00 L 385.00 623.00 L 411.00 624.00 L 412.00 626.00 L 408.00 627.00 L 407.00 629.00 L 400.00 629.00 L 399.00 632.00 L 384.00 631.00 L 383.00 636.00 L 372.00 636.00 L 371.00 640.00 L 363.00 640.00 L 362.00 647.00 L 360.00 647.00 L 359.00 644.00 L 352.00 644.00 L 351.00 647.00 L 345.00 647.00 L 342.00 652.00 L 332.00 652.00 L 331.00 655.00 L 316.00 656.00 L 315.00 659.00 L 312.00 659.00 L 311.00 656.00 L 304.00 656.00 L 304.00 659.00 L 300.00 660.00 L 299.00 656.00 L 284.00 657.00 L 283.00 660.00 L 264.00 659.00 L 259.00 661.00 L 220.00 660.00 L 211.00 656.00 L 188.00 655.00 L 187.00 652.00 L 184.00 652.00 L 184.00 655.00 L 180.00 656.00 L 179.00 653.00 L 172.00 652.00 L 171.00 648.00 L 156.00 648.00 L 155.00 645.00 L 144.00 644.00 L 143.00 640.00 L 136.00 640.00 L 135.00 637.00 L 124.00 636.00 L 123.00 633.00 L 116.00 636.00 L 115.00 632.00 L 109.00 632.00 L 109.00 636.00 L 107.00 637.00 L 106.00 634.00 L 101.00 633.00 L 101.00 629.00 L 88.00 615.00 L 85.00 614.00 L 72.00 596.00 L 68.00 593.00 L 68.00 590.00 L 60.00 581.00 L 60.00 578.00 L 52.00 568.00 L 48.00 558.00 L 43.00 553.00 L 43.00 549.00 L 35.00 540.00 L 34.00 534.00 L 30.00 534.00 L 34.00 537.00 L 34.00 541.00 L 38.00 543.00 L 39.00 547.00 L 43.00 550.00 L 43.00 556.00 L 48.00 560.00 L 48.00 563.00 L 51.00 565.00 L 51.00 569.00 L 56.00 573.00 L 56.00 576.00 L 64.00 585.00 L 64.00 589.00 L 68.00 592.00 L 68.00 594.00 L 72.00 597.00 L 72.00 600.00 L 78.00 605.00 L 85.00 615.00 L 99.00 629.00 L 100.00 633.00 L 143.00 671.00 L 144.00 670.00 L 156.00 678.00 L 159.00 682.00 L 163.00 683.00 L 171.00 690.00 L 174.00 690.00 L 178.00 694.00 L 188.00 698.00 L 191.00 702.00 L 194.00 701.00 L 199.00 705.00 L 202.00 705.00 L 206.00 710.00 L 215.00 706.00 L 223.00 708.00 L 224.00 710.00 L 235.00 712.00 L 236.00 714.00 L 243.00 714.00 L 244.00 711.00 L 247.00 711.00 L 248.00 714.00 L 252.00 715.00 L 275.00 714.00 L 276.00 716.00 L 279.00 716.00 L 280.00 714.00 L 291.00 715.00 L 292.00 712.00 L 299.00 711.00 L 300.00 714.00 L 307.00 716.00 L 308.00 711.00 L 323.00 711.00 L 324.00 708.00 L 327.00 708.00 L 328.00 711.00 L 339.00 710.00 L 340.00 708.00 L 355.00 706.00 L 356.00 703.00 L 363.00 703.00 L 364.00 699.00 L 375.00 698.00 L 376.00 695.00 L 383.00 695.00 L 384.00 691.00 L 391.00 691.00 L 392.00 688.00 L 403.00 687.00 L 404.00 683.00 L 415.00 683.00 L 416.00 679.00 L 431.00 679.00 L 432.00 675.00 L 443.00 675.00 L 444.00 671.00 L 451.00 670.00 L 452.00 667.00 L 467.00 667.00 L 467.00 665.00 L 473.00 660.00 L 482.00 659.00 L 484.00 656.00 L 491.00 654.00 L 492.00 651.00 L 495.00 651.00 L 496.00 648.00 L 506.00 648.00 L 504.00 648.00 L 504.00 646.00 L 511.00 646.00 L 512.00 643.00 L 523.00 643.00 L 523.00 640.00 L 527.00 639.00 L 528.00 635.00 L 542.00 635.00 L 548.00 627.00 L 563.00 626.00 L 563.00 620.00 L 571.00 619.00 L 571.00 616.00 L 575.00 615.00 L 576.00 611.00 L 583.00 611.00 L 584.00 607.00 L 595.00 607.00 L 596.00 603.00 L 603.00 603.00 L 604.00 600.00 L 615.00 598.00 L 616.00 594.00 L 623.00 595.00 L 623.00 589.00 L 625.00 587.00 L 635.00 586.00 L 636.00 583.00 L 639.00 583.00 L 640.00 579.00 L 646.00 578.00 L 649.00 574.00 L 654.00 574.00 L 656.00 568.00 L 663.00 567.00 L 664.00 563.00 L 667.00 563.00 L 668.00 566.00 L 674.00 566.00 L 676.00 559.00 L 679.00 559.00 L 680.00 556.00 L 691.00 554.00 L 692.00 551.00 L 695.00 551.00 L 697.00 544.00 L 703.00 546.00 L 703.00 540.00 L 706.00 539.00 L 708.00 535.00 L 715.00 534.00 L 715.00 529.00 L 719.00 528.00 Z M 711.00 458.00 L 711.00 462.00 L 720.00 463.00 L 725.00 467.00 L 731.00 467.00 L 735.00 471.00 L 740.00 472.00 L 744.00 477.00 L 748.00 475.00 L 751.00 476.00 L 752.00 479.00 L 750.00 481.00 L 750.00 489.00 L 748.00 491.00 L 746.00 489.00 L 746.00 483.00 L 741.00 483.00 L 743.00 484.00 L 737.00 489.00 L 734.00 495.00 L 729.00 497.00 L 729.00 503.00 L 727.00 507.00 L 724.00 508.00 L 727.00 509.00 L 725.00 511.00 L 727.00 513.00 L 738.00 514.00 L 740.00 519.00 L 737.00 521.00 L 740.00 519.00 L 740.00 513.00 L 743.00 509.00 L 743.00 505.00 L 747.00 501.00 L 747.00 494.00 L 751.00 490.00 L 751.00 485.00 L 754.00 482.00 L 752.00 476.00 L 748.00 475.00 L 745.00 470.00 L 740.00 471.00 L 737.00 470.00 L 736.00 467.00 L 728.00 466.00 L 725.00 462.00 L 715.00 463.00 Z M 675.00 229.00 L 653.00 251.00 L 651.00 251.00 L 645.00 259.00 L 638.00 262.00 L 637.00 266.00 L 633.00 266.00 L 628.00 273.00 L 616.00 273.00 L 612.00 276.00 L 610.00 281.00 L 604.00 281.00 L 603.00 283.00 L 597.00 284.00 L 597.00 288.00 L 593.00 295.00 L 594.00 301.00 L 592.00 303.00 L 589.00 301.00 L 590.00 304.00 L 588.00 306.00 L 586.00 304.00 L 587.00 301.00 L 584.00 301.00 L 583.00 306.00 L 586.00 308.00 L 582.00 310.00 L 580.00 314.00 L 577.00 314.00 L 569.00 323.00 L 567.00 323.00 L 559.00 334.00 L 551.00 339.00 L 544.00 347.00 L 539.00 343.00 L 539.00 340.00 L 537.00 340.00 L 534.00 345.00 L 529.00 345.00 L 529.00 347.00 L 525.00 349.00 L 522.00 356.00 L 520.00 356.00 L 519.00 352.00 L 517.00 352.00 L 516.00 359.00 L 512.00 360.00 L 512.00 363.00 L 508.00 364.00 L 507.00 368.00 L 504.00 368.00 L 502.00 372.00 L 496.00 372.00 L 496.00 375.00 L 492.00 376.00 L 491.00 380.00 L 484.00 380.00 L 484.00 383.00 L 480.00 384.00 L 479.00 392.00 L 472.00 392.00 L 471.00 388.00 L 468.00 388.00 L 468.00 391.00 L 471.00 391.00 L 472.00 395.00 L 464.00 396.00 L 462.00 403.00 L 459.00 402.00 L 460.00 396.00 L 458.00 395.00 L 444.00 396.00 L 444.00 399.00 L 440.00 400.00 L 439.00 396.00 L 436.00 396.00 L 435.00 393.00 L 431.00 392.00 L 431.00 388.00 L 427.00 387.00 L 427.00 380.00 L 423.00 379.00 L 422.00 373.00 L 416.00 373.00 L 413.00 370.00 L 409.00 370.00 L 415.00 366.00 L 417.00 369.00 L 422.00 365.00 L 417.00 365.00 L 417.00 368.00 L 415.00 363.00 L 414.00 365.00 L 411.00 364.00 L 408.00 367.00 L 408.00 370.00 L 406.00 367.00 L 401.00 370.00 L 396.00 368.00 L 385.00 373.00 L 383.00 377.00 L 389.00 380.00 L 387.00 382.00 L 373.00 381.00 L 374.00 384.00 L 366.00 390.00 L 363.00 390.00 L 362.00 395.00 L 356.00 402.00 L 354.00 401.00 L 355.00 397.00 L 353.00 396.00 L 352.00 399.00 L 349.00 400.00 L 351.00 407.00 L 344.00 408.00 L 344.00 411.00 L 341.00 412.00 L 339.00 416.00 L 333.00 416.00 L 332.00 422.00 L 333.00 425.00 L 338.00 428.00 L 337.00 430.00 L 334.00 431.00 L 332.00 427.00 L 328.00 426.00 L 326.00 423.00 L 322.00 423.00 L 315.00 415.00 L 312.00 414.00 L 299.00 397.00 L 287.00 372.00 L 287.00 365.00 L 282.00 356.00 L 280.00 334.00 L 281.00 309.00 L 277.00 323.00 L 275.00 325.00 L 273.00 323.00 L 272.00 317.00 L 275.00 310.00 L 273.00 304.00 L 276.00 300.00 L 278.00 300.00 L 282.00 293.00 L 281.00 287.00 L 285.00 282.00 L 285.00 279.00 L 279.00 288.00 L 277.00 297.00 L 271.00 304.00 L 270.00 319.00 L 266.00 321.00 L 267.00 326.00 L 265.00 327.00 L 268.00 333.00 L 263.00 344.00 L 264.00 351.00 L 262.00 357.00 L 265.00 360.00 L 267.00 378.00 L 268.00 372.00 L 271.00 368.00 L 279.00 366.00 L 278.00 355.00 L 281.00 351.00 L 282.00 362.00 L 287.00 365.00 L 287.00 375.00 L 291.00 380.00 L 291.00 384.00 L 296.00 389.00 L 296.00 393.00 L 303.00 401.00 L 304.00 405.00 L 320.00 422.00 L 330.00 427.00 L 332.00 430.00 L 339.00 431.00 L 352.00 438.00 L 360.00 439.00 L 362.00 438.00 L 354.00 429.00 L 354.00 406.00 L 362.00 394.00 L 378.00 382.00 L 402.00 382.00 L 421.00 400.00 L 424.00 419.00 L 422.00 422.00 L 422.00 430.00 L 417.00 436.00 L 418.00 438.00 L 421.00 434.00 L 426.00 434.00 L 430.00 430.00 L 436.00 430.00 L 440.00 426.00 L 451.00 422.00 L 454.00 418.00 L 457.00 418.00 L 465.00 411.00 L 469.00 411.00 L 472.00 407.00 L 482.00 402.00 L 485.00 398.00 L 498.00 390.00 L 504.00 383.00 L 511.00 379.00 L 521.00 368.00 L 524.00 367.00 L 525.00 364.00 L 528.00 364.00 L 539.00 355.00 L 553.00 339.00 L 559.00 336.00 L 561.00 331.00 L 583.00 315.00 L 597.00 299.00 L 601.00 301.00 L 601.00 296.00 L 603.00 294.00 L 605.00 294.00 L 640.00 262.00 L 642.00 262.00 Z M 542.00 347.00 L 536.00 354.00 L 530.00 357.00 L 528.00 362.00 L 525.00 362.00 L 520.00 366.00 L 519.00 365.00 L 523.00 358.00 L 524.00 359.00 L 531.00 354.00 L 532.00 347.00 Z " fill="#0357ac"/>
    <path d="M 757.00 476.00 L 755.00 474.00 L 750.00 474.00 L 746.00 470.00 L 748.00 474.00 L 753.00 476.00 L 755.00 482.00 L 752.00 485.00 L 752.00 490.00 L 748.00 494.00 L 748.00 501.00 L 744.00 505.00 L 744.00 509.00 L 741.00 513.00 L 741.00 519.00 L 739.00 521.00 L 712.00 521.00 L 705.00 523.00 L 708.00 527.00 L 712.00 525.00 L 720.00 525.00 L 721.00 527.00 L 716.00 529.00 L 715.00 535.00 L 708.00 536.00 L 707.00 539.00 L 704.00 540.00 L 703.00 547.00 L 697.00 545.00 L 695.00 552.00 L 692.00 552.00 L 691.00 555.00 L 686.00 557.00 L 680.00 557.00 L 679.00 560.00 L 676.00 560.00 L 674.00 567.00 L 668.00 567.00 L 667.00 564.00 L 664.00 564.00 L 663.00 568.00 L 656.00 569.00 L 654.00 575.00 L 649.00 575.00 L 646.00 579.00 L 640.00 580.00 L 640.00 583.00 L 636.00 584.00 L 635.00 587.00 L 625.00 588.00 L 623.00 596.00 L 616.00 595.00 L 615.00 599.00 L 604.00 601.00 L 603.00 604.00 L 596.00 604.00 L 595.00 608.00 L 584.00 608.00 L 583.00 612.00 L 576.00 612.00 L 576.00 615.00 L 572.00 616.00 L 571.00 620.00 L 564.00 620.00 L 563.00 627.00 L 548.00 628.00 L 542.00 636.00 L 528.00 636.00 L 528.00 639.00 L 524.00 640.00 L 523.00 644.00 L 512.00 644.00 L 511.00 647.00 L 496.00 649.00 L 495.00 652.00 L 492.00 652.00 L 491.00 655.00 L 484.00 657.00 L 482.00 660.00 L 473.00 661.00 L 467.00 668.00 L 452.00 668.00 L 451.00 671.00 L 444.00 672.00 L 443.00 676.00 L 432.00 676.00 L 431.00 680.00 L 416.00 680.00 L 415.00 684.00 L 404.00 684.00 L 403.00 688.00 L 392.00 689.00 L 391.00 692.00 L 384.00 692.00 L 383.00 696.00 L 376.00 696.00 L 375.00 699.00 L 364.00 700.00 L 363.00 704.00 L 356.00 704.00 L 355.00 707.00 L 348.00 707.00 L 335.00 712.00 L 328.00 712.00 L 327.00 709.00 L 324.00 709.00 L 323.00 712.00 L 308.00 712.00 L 307.00 717.00 L 300.00 715.00 L 299.00 712.00 L 292.00 713.00 L 291.00 716.00 L 280.00 715.00 L 279.00 717.00 L 276.00 717.00 L 275.00 715.00 L 252.00 716.00 L 248.00 715.00 L 247.00 712.00 L 244.00 712.00 L 243.00 715.00 L 236.00 715.00 L 235.00 713.00 L 224.00 711.00 L 223.00 709.00 L 215.00 707.00 L 206.00 711.00 L 202.00 706.00 L 199.00 706.00 L 194.00 702.00 L 191.00 703.00 L 188.00 699.00 L 178.00 695.00 L 174.00 691.00 L 171.00 691.00 L 163.00 684.00 L 159.00 683.00 L 156.00 679.00 L 144.00 671.00 L 143.00 672.00 L 99.00 633.00 L 98.00 629.00 L 84.00 615.00 L 77.00 605.00 L 71.00 600.00 L 71.00 597.00 L 67.00 594.00 L 67.00 592.00 L 63.00 589.00 L 63.00 585.00 L 59.00 582.00 L 55.00 576.00 L 55.00 573.00 L 50.00 569.00 L 50.00 565.00 L 47.00 563.00 L 47.00 560.00 L 42.00 556.00 L 42.00 550.00 L 38.00 547.00 L 38.00 544.00 L 35.00 544.00 L 38.00 546.00 L 37.00 549.00 L 42.00 556.00 L 42.00 559.00 L 47.00 561.00 L 46.00 566.00 L 50.00 569.00 L 50.00 572.00 L 51.00 571.00 L 55.00 574.00 L 54.00 580.00 L 56.00 579.00 L 59.00 584.00 L 63.00 586.00 L 62.00 591.00 L 67.00 593.00 L 66.00 598.00 L 67.00 596.00 L 71.00 598.00 L 71.00 604.00 L 73.00 604.00 L 84.00 614.00 L 83.00 618.00 L 84.00 617.00 L 88.00 620.00 L 99.00 635.00 L 115.00 648.00 L 121.00 656.00 L 130.00 660.00 L 140.00 672.00 L 153.00 679.00 L 162.00 688.00 L 165.00 687.00 L 168.00 691.00 L 178.00 695.00 L 181.00 700.00 L 185.00 699.00 L 195.00 707.00 L 201.00 707.00 L 205.00 712.00 L 209.00 712.00 L 212.00 715.00 L 217.00 715.00 L 220.00 719.00 L 227.00 719.00 L 230.00 723.00 L 236.00 724.00 L 238.00 728.00 L 247.00 727.00 L 251.00 731.00 L 260.00 732.00 L 264.00 735.00 L 270.00 735.00 L 274.00 739.00 L 287.00 739.00 L 296.00 743.00 L 302.00 743.00 L 305.00 747.00 L 312.00 745.00 L 325.00 746.00 L 342.00 751.00 L 380.00 751.00 L 397.00 749.00 L 423.00 750.00 L 433.00 748.00 L 424.00 746.00 L 424.00 742.00 L 431.00 742.00 L 434.00 745.00 L 448.00 745.00 L 457.00 743.00 L 444.00 743.00 L 444.00 739.00 L 470.00 741.00 L 471.00 739.00 L 463.00 739.00 L 462.00 737.00 L 464.00 735.00 L 471.00 734.00 L 474.00 737.00 L 476.00 732.00 L 487.00 730.00 L 490.00 733.00 L 500.00 733.00 L 501.00 731.00 L 491.00 730.00 L 496.00 726.00 L 499.00 726.00 L 502.00 729.00 L 513.00 729.00 L 514.00 727.00 L 511.00 726.00 L 512.00 724.00 L 522.00 725.00 L 524.00 724.00 L 522.00 722.00 L 523.00 720.00 L 533.00 721.00 L 535.00 717.00 L 541.00 717.00 L 544.00 713.00 L 550.00 713.00 L 551.00 711.00 L 545.00 711.00 L 545.00 708.00 L 550.00 707.00 L 558.00 710.00 L 561.00 705.00 L 565.00 705.00 L 568.00 701.00 L 573.00 702.00 L 576.00 697.00 L 580.00 697.00 L 582.00 693.00 L 585.00 694.00 L 587.00 691.00 L 583.00 691.00 L 583.00 687.00 L 585.00 686.00 L 588.00 689.00 L 593.00 690.00 L 595.00 686.00 L 601.00 682.00 L 605.00 682.00 L 607.00 678.00 L 620.00 670.00 L 638.00 654.00 L 641.00 654.00 L 660.00 635.00 L 663.00 634.00 L 666.00 628.00 L 671.00 625.00 L 681.00 611.00 L 691.00 601.00 L 695.00 593.00 L 700.00 587.00 L 703.00 586.00 L 703.00 582.00 L 711.00 574.00 L 711.00 570.00 L 719.00 561.00 L 719.00 557.00 L 723.00 553.00 L 724.00 548.00 L 727.00 546.00 L 730.00 547.00 L 727.00 542.00 L 732.00 538.00 L 735.00 525.00 L 742.00 521.00 L 743.00 517.00 L 745.00 518.00 L 744.00 508.00 L 747.00 506.00 L 749.00 507.00 L 750.00 502.00 L 748.00 496.00 L 752.00 493.00 L 753.00 496.00 L 752.00 488.00 L 755.00 484.00 L 757.00 485.00 Z M 263.00 327.00 L 263.00 338.00 L 261.00 339.00 L 262.00 343.00 L 259.00 351.00 L 260.00 356.00 L 258.00 357.00 L 258.00 363.00 L 260.00 363.00 L 263.00 368.00 L 263.00 378.00 L 261.00 381.00 L 259.00 380.00 L 258.00 384.00 L 263.00 387.00 L 263.00 394.00 L 269.00 402.00 L 269.00 406.00 L 274.00 413.00 L 274.00 418.00 L 276.00 419.00 L 277.00 410.00 L 294.00 404.00 L 294.00 397.00 L 297.00 396.00 L 308.00 412.00 L 325.00 427.00 L 330.00 428.00 L 333.00 432.00 L 345.00 435.00 L 350.00 439.00 L 361.00 440.00 L 352.00 439.00 L 339.00 432.00 L 332.00 431.00 L 330.00 428.00 L 320.00 423.00 L 303.00 405.00 L 302.00 401.00 L 295.00 393.00 L 295.00 389.00 L 290.00 384.00 L 290.00 380.00 L 286.00 375.00 L 286.00 365.00 L 281.00 362.00 L 281.00 352.00 L 279.00 355.00 L 280.00 366.00 L 272.00 368.00 L 269.00 372.00 L 268.00 378.00 L 266.00 378.00 L 264.00 360.00 L 261.00 357.00 L 263.00 351.00 L 262.00 344.00 L 267.00 333.00 L 266.00 329.00 Z M 600.00 301.00 L 597.00 300.00 L 596.00 303.00 L 583.00 316.00 L 561.00 332.00 L 560.00 336.00 L 553.00 340.00 L 539.00 356.00 L 528.00 365.00 L 525.00 365.00 L 524.00 368.00 L 521.00 369.00 L 511.00 380.00 L 504.00 384.00 L 498.00 391.00 L 485.00 399.00 L 482.00 403.00 L 472.00 408.00 L 469.00 412.00 L 465.00 412.00 L 463.00 415.00 L 457.00 419.00 L 454.00 419.00 L 450.00 423.00 L 471.00 411.00 L 474.00 407.00 L 477.00 407.00 L 499.00 391.00 L 506.00 383.00 L 516.00 380.00 L 517.00 377.00 L 519.00 377.00 L 518.00 376.00 L 523.00 373.00 L 534.00 360.00 L 538.00 360.00 L 546.00 348.00 L 549.00 349.00 L 549.00 347.00 L 553.00 345.00 L 552.00 342.00 L 554.00 340.00 L 558.00 341.00 L 563.00 333.00 L 565.00 334.00 L 570.00 328.00 L 576.00 325.00 L 576.00 322.00 L 586.00 313.00 L 590.00 312.00 L 593.00 309.00 L 593.00 306.00 L 597.00 305.00 Z " fill="#014794"/>
    <path d="M 40.00 525.00 L 109.00 526.00 L 116.00 530.00 L 127.00 531.00 L 131.00 534.00 L 142.00 534.00 L 146.00 538.00 L 164.00 542.00 L 170.00 547.00 L 173.00 546.00 L 183.00 551.00 L 185.00 554.00 L 190.00 554.00 L 194.00 558.00 L 207.00 563.00 L 209.00 566.00 L 214.00 567.00 L 224.00 574.00 L 228.00 574.00 L 240.00 582.00 L 246.00 582.00 L 249.00 586.00 L 264.00 590.00 L 268.00 594.00 L 276.00 594.00 L 281.00 598.00 L 286.00 598.00 L 290.00 602.00 L 301.00 602.00 L 305.00 606.00 L 316.00 606.00 L 328.00 610.00 L 337.00 610.00 L 342.00 614.00 L 412.00 612.00 L 392.00 611.00 L 392.00 607.00 L 403.00 607.00 L 404.00 603.00 L 411.00 603.00 L 412.00 599.00 L 415.00 599.00 L 416.00 603.00 L 419.00 603.00 L 419.00 600.00 L 423.00 599.00 L 423.00 596.00 L 427.00 595.00 L 428.00 591.00 L 431.00 591.00 L 432.00 595.00 L 435.00 595.00 L 435.00 592.00 L 439.00 591.00 L 440.00 587.00 L 443.00 587.00 L 444.00 591.00 L 447.00 591.00 L 448.00 587.00 L 455.00 587.00 L 457.00 579.00 L 460.00 580.00 L 460.00 583.00 L 463.00 583.00 L 463.00 572.00 L 467.00 571.00 L 468.00 567.00 L 471.00 567.00 L 472.00 571.00 L 475.00 571.00 L 475.00 564.00 L 468.00 564.00 L 467.00 559.00 L 475.00 559.00 L 476.00 556.00 L 483.00 555.00 L 483.00 553.00 L 487.00 551.00 L 480.00 550.00 L 477.00 554.00 L 462.00 553.00 L 459.00 558.00 L 453.00 557.00 L 446.00 559.00 L 441.00 558.00 L 436.00 561.00 L 418.00 561.00 L 406.00 565.00 L 368.00 564.00 L 361.00 561.00 L 345.00 560.00 L 340.00 557.00 L 326.00 556.00 L 322.00 552.00 L 316.00 552.00 L 305.00 548.00 L 301.00 544.00 L 293.00 545.00 L 285.00 540.00 L 279.00 540.00 L 274.00 535.00 L 265.00 535.00 L 253.00 529.00 L 244.00 528.00 L 239.00 524.00 L 217.00 520.00 L 212.00 516.00 L 198.00 516.00 L 190.00 512.00 L 177.00 512.00 L 169.00 509.00 L 107.00 509.00 L 97.00 512.00 L 82.00 513.00 L 76.00 517.00 L 61.00 517.00 L 58.00 521.00 Z M 158.00 118.00 L 156.00 122.00 L 160.00 127.00 L 165.00 129.00 L 167.00 139.00 L 169.00 140.00 L 176.00 138.00 L 173.00 134.00 L 171.00 135.00 L 169.00 133.00 L 167.00 127.00 L 166.00 129.00 L 164.00 127.00 L 164.00 123.00 L 162.00 123.00 Z M 133.00 103.00 L 117.00 120.00 L 116.00 119.00 L 111.00 123.00 L 111.00 129.00 L 109.00 131.00 L 103.00 131.00 L 103.00 138.00 L 95.00 142.00 L 95.00 145.00 L 87.00 155.00 L 80.00 160.00 L 80.00 165.00 L 73.00 173.00 L 73.00 178.00 L 68.00 182.00 L 62.00 192.00 L 62.00 196.00 L 64.00 196.00 L 66.00 192.00 L 69.00 199.00 L 72.00 200.00 L 73.00 207.00 L 79.00 207.00 L 80.00 211.00 L 84.00 212.00 L 84.00 215.00 L 90.00 216.00 L 91.00 219.00 L 88.00 220.00 L 88.00 223.00 L 95.00 223.00 L 97.00 230.00 L 110.00 232.00 L 112.00 239.00 L 115.00 239.00 L 116.00 242.00 L 123.00 244.00 L 124.00 247.00 L 128.00 248.00 L 128.00 251.00 L 132.00 252.00 L 132.00 254.00 L 139.00 255.00 L 140.00 259.00 L 146.00 259.00 L 148.00 262.00 L 155.00 263.00 L 156.00 267.00 L 163.00 267.00 L 164.00 271.00 L 169.00 270.00 L 172.00 274.00 L 178.00 269.00 L 178.00 265.00 L 214.00 232.00 L 219.00 232.00 L 218.00 231.00 L 222.00 229.00 L 225.00 224.00 L 227.00 225.00 L 232.00 221.00 L 232.00 212.00 L 225.00 205.00 L 222.00 199.00 L 218.00 199.00 L 216.00 197.00 L 217.00 193.00 L 212.00 189.00 L 213.00 186.00 L 208.00 179.00 L 205.00 178.00 L 201.00 170.00 L 200.00 171.00 L 197.00 169.00 L 196.00 163.00 L 189.00 157.00 L 188.00 152.00 L 181.00 146.00 L 180.00 143.00 L 176.00 144.00 L 176.00 148.00 L 177.00 147.00 L 180.00 149.00 L 178.00 156.00 L 164.00 156.00 L 163.00 152.00 L 167.00 151.00 L 167.00 148.00 L 159.00 147.00 L 159.00 143.00 L 156.00 142.00 L 155.00 136.00 L 152.00 135.00 L 152.00 132.00 L 151.00 136.00 L 150.00 133.00 L 144.00 132.00 L 143.00 128.00 L 137.00 128.00 L 135.00 126.00 L 138.00 116.00 L 133.00 116.00 L 136.00 111.00 L 136.00 106.00 L 133.00 105.00 Z " fill="#35c2f6"/>
    <path d="M 27.00 524.00 L 30.00 526.00 L 30.00 532.00 L 35.00 534.00 L 36.00 540.00 L 44.00 549.00 L 44.00 553.00 L 49.00 558.00 L 49.00 561.00 L 61.00 578.00 L 61.00 581.00 L 69.00 590.00 L 69.00 593.00 L 73.00 596.00 L 86.00 614.00 L 88.00 614.00 L 102.00 629.00 L 102.00 633.00 L 106.00 633.00 L 108.00 636.00 L 109.00 631.00 L 115.00 631.00 L 116.00 635.00 L 123.00 632.00 L 124.00 635.00 L 135.00 636.00 L 136.00 639.00 L 143.00 639.00 L 144.00 643.00 L 155.00 644.00 L 156.00 647.00 L 171.00 647.00 L 172.00 651.00 L 179.00 652.00 L 180.00 655.00 L 183.00 655.00 L 183.00 652.00 L 187.00 651.00 L 188.00 654.00 L 211.00 655.00 L 220.00 659.00 L 227.00 658.00 L 236.00 660.00 L 259.00 660.00 L 264.00 658.00 L 283.00 659.00 L 284.00 656.00 L 299.00 655.00 L 300.00 659.00 L 303.00 659.00 L 304.00 655.00 L 311.00 655.00 L 312.00 658.00 L 315.00 658.00 L 316.00 655.00 L 331.00 654.00 L 332.00 651.00 L 342.00 651.00 L 345.00 646.00 L 351.00 646.00 L 352.00 643.00 L 359.00 643.00 L 360.00 646.00 L 362.00 646.00 L 363.00 639.00 L 371.00 639.00 L 372.00 635.00 L 383.00 635.00 L 384.00 630.00 L 399.00 631.00 L 400.00 628.00 L 407.00 628.00 L 408.00 626.00 L 411.00 626.00 L 407.00 624.00 L 385.00 624.00 L 385.00 622.00 L 423.00 621.00 L 430.00 618.00 L 415.00 621.00 L 360.00 621.00 L 350.00 618.00 L 351.00 619.00 L 348.00 621.00 L 340.00 621.00 L 337.00 619.00 L 338.00 617.00 L 348.00 617.00 L 336.00 617.00 L 332.00 613.00 L 330.00 613.00 L 333.00 614.00 L 331.00 617.00 L 326.00 617.00 L 323.00 614.00 L 328.00 613.00 L 315.00 614.00 L 310.00 610.00 L 309.00 612.00 L 304.00 612.00 L 304.00 609.00 L 308.00 609.00 L 296.00 611.00 L 295.00 609.00 L 298.00 608.00 L 297.00 606.00 L 285.00 606.00 L 285.00 608.00 L 288.00 609.00 L 288.00 612.00 L 284.00 612.00 L 283.00 616.00 L 276.00 616.00 L 275.00 619.00 L 272.00 619.00 L 271.00 616.00 L 268.00 615.00 L 263.00 616.00 L 262.00 620.00 L 260.00 620.00 L 259.00 617.00 L 251.00 620.00 L 228.00 619.00 L 227.00 617.00 L 224.00 617.00 L 223.00 619.00 L 212.00 619.00 L 211.00 616.00 L 201.00 616.00 L 199.00 612.00 L 192.00 615.00 L 191.00 612.00 L 180.00 612.00 L 179.00 609.00 L 164.00 608.00 L 163.00 604.00 L 148.00 604.00 L 147.00 601.00 L 132.00 599.00 L 131.00 596.00 L 112.00 595.00 L 111.00 592.00 L 107.00 591.00 L 107.00 589.00 L 100.00 588.00 L 99.00 585.00 L 92.00 584.00 L 91.00 580.00 L 84.00 580.00 L 83.00 576.00 L 76.00 575.00 L 75.00 572.00 L 72.00 572.00 L 66.00 565.00 L 61.00 564.00 L 55.00 557.00 L 53.00 557.00 L 53.00 561.00 L 51.00 562.00 L 49.00 560.00 L 49.00 555.00 L 45.00 553.00 L 45.00 549.00 L 40.00 545.00 L 40.00 541.00 L 35.00 533.00 L 30.00 531.00 L 30.00 525.00 Z M 683.00 454.00 L 683.00 457.00 L 688.00 459.00 L 697.00 459.00 L 708.00 464.00 L 717.00 464.00 L 721.00 468.00 L 720.00 469.00 L 728.00 469.00 L 731.00 471.00 L 729.00 473.00 L 720.00 473.00 L 715.00 477.00 L 715.00 483.00 L 712.00 484.00 L 711.00 488.00 L 708.00 488.00 L 708.00 494.00 L 700.00 497.00 L 699.00 503.00 L 688.00 505.00 L 700.00 505.00 L 708.00 510.00 L 718.00 510.00 L 726.00 514.00 L 731.00 514.00 L 725.00 513.00 L 724.00 511.00 L 726.00 509.00 L 723.00 508.00 L 726.00 507.00 L 728.00 503.00 L 728.00 497.00 L 734.00 494.00 L 736.00 489.00 L 742.00 484.00 L 740.00 483.00 L 741.00 482.00 L 747.00 483.00 L 748.00 490.00 L 749.00 481.00 L 751.00 479.00 L 750.00 476.00 L 744.00 478.00 L 740.00 473.00 L 735.00 472.00 L 731.00 468.00 L 725.00 468.00 L 720.00 464.00 L 711.00 463.00 L 709.00 461.00 L 710.00 459.00 L 692.00 459.00 L 689.00 454.00 Z M 293.00 269.00 L 290.00 270.00 L 291.00 273.00 L 286.00 278.00 L 286.00 282.00 L 284.00 284.00 L 282.00 282.00 L 283.00 293.00 L 279.00 300.00 L 274.00 304.00 L 276.00 307.00 L 273.00 317.00 L 275.00 324.00 L 276.00 320.00 L 278.00 319.00 L 278.00 313.00 L 280.00 309.00 L 282.00 309.00 L 282.00 344.00 L 282.00 302.00 L 286.00 299.00 L 284.00 288.00 Z M 683.00 217.00 L 678.00 218.00 L 676.00 222.00 L 671.00 222.00 L 662.00 227.00 L 660.00 226.00 L 659.00 228.00 L 654.00 228.00 L 656.00 229.00 L 655.00 231.00 L 651.00 230.00 L 650.00 232.00 L 641.00 234.00 L 640.00 236.00 L 639.00 235.00 L 640.00 237.00 L 633.00 242.00 L 630.00 241.00 L 633.00 238.00 L 623.00 243.00 L 625.00 245.00 L 623.00 247.00 L 622.00 245.00 L 621.00 247.00 L 619.00 246.00 L 619.00 250.00 L 615.00 251.00 L 613.00 254.00 L 605.00 254.00 L 603.00 259.00 L 597.00 264.00 L 590.00 263.00 L 582.00 272.00 L 577.00 272.00 L 574.00 275.00 L 566.00 274.00 L 568.00 277.00 L 561.00 283.00 L 554.00 282.00 L 555.00 285.00 L 553.00 287.00 L 547.00 288.00 L 546.00 286.00 L 546.00 288.00 L 542.00 290.00 L 539.00 295.00 L 532.00 294.00 L 532.00 297.00 L 527.00 300.00 L 526.00 298.00 L 525.00 302.00 L 522.00 300.00 L 521.00 302.00 L 518.00 302.00 L 519.00 305.00 L 517.00 307.00 L 514.00 305.00 L 510.00 308.00 L 509.00 307.00 L 506.00 310.00 L 506.00 313.00 L 502.00 314.00 L 504.00 316.00 L 510.00 310.00 L 513.00 312.00 L 516.00 308.00 L 520.00 307.00 L 521.00 303.00 L 528.00 305.00 L 529.00 307.00 L 520.00 314.00 L 516.00 313.00 L 514.00 319.00 L 509.00 319.00 L 506.00 323.00 L 498.00 326.00 L 488.00 333.00 L 484.00 333.00 L 482.00 331.00 L 494.00 323.00 L 495.00 319.00 L 500.00 317.00 L 500.00 314.00 L 499.00 315.00 L 492.00 310.00 L 489.00 303.00 L 489.00 308.00 L 493.00 311.00 L 492.00 318.00 L 486.00 324.00 L 479.00 325.00 L 468.00 332.00 L 465.00 331.00 L 461.00 336.00 L 457.00 334.00 L 456.00 338.00 L 450.00 338.00 L 448.00 342.00 L 444.00 340.00 L 447.00 337.00 L 440.00 337.00 L 432.00 343.00 L 424.00 343.00 L 423.00 345.00 L 408.00 347.00 L 407.00 349.00 L 401.00 349.00 L 400.00 351.00 L 392.00 353.00 L 391.00 355.00 L 377.00 357.00 L 370.00 363.00 L 365.00 364.00 L 362.00 368.00 L 356.00 369.00 L 351.00 376.00 L 344.00 377.00 L 339.00 383.00 L 325.00 387.00 L 318.00 397.00 L 313.00 396.00 L 309.00 400.00 L 308.00 404.00 L 297.00 392.00 L 313.00 414.00 L 315.00 414.00 L 322.00 422.00 L 326.00 422.00 L 328.00 425.00 L 332.00 426.00 L 335.00 430.00 L 337.00 428.00 L 332.00 425.00 L 332.00 416.00 L 339.00 415.00 L 339.00 413.00 L 343.00 411.00 L 344.00 407.00 L 350.00 407.00 L 348.00 400.00 L 351.00 399.00 L 353.00 395.00 L 356.00 397.00 L 356.00 401.00 L 361.00 395.00 L 362.00 390.00 L 373.00 384.00 L 373.00 380.00 L 387.00 381.00 L 387.00 379.00 L 382.00 377.00 L 385.00 372.00 L 396.00 367.00 L 401.00 369.00 L 406.00 366.00 L 408.00 369.00 L 407.00 367.00 L 411.00 363.00 L 414.00 364.00 L 415.00 362.00 L 416.00 366.00 L 414.00 368.00 L 412.00 367.00 L 413.00 368.00 L 410.00 370.00 L 413.00 369.00 L 416.00 372.00 L 423.00 373.00 L 424.00 379.00 L 421.00 380.00 L 421.00 382.00 L 423.00 383.00 L 423.00 380.00 L 427.00 379.00 L 428.00 387.00 L 431.00 387.00 L 432.00 392.00 L 435.00 392.00 L 436.00 395.00 L 440.00 396.00 L 440.00 399.00 L 436.00 400.00 L 436.00 403.00 L 439.00 403.00 L 439.00 400.00 L 443.00 399.00 L 443.00 396.00 L 448.00 394.00 L 460.00 395.00 L 460.00 402.00 L 462.00 402.00 L 464.00 395.00 L 471.00 395.00 L 472.00 391.00 L 479.00 391.00 L 479.00 384.00 L 483.00 383.00 L 484.00 379.00 L 491.00 379.00 L 491.00 376.00 L 495.00 375.00 L 496.00 371.00 L 502.00 371.00 L 504.00 367.00 L 507.00 367.00 L 507.00 364.00 L 511.00 363.00 L 512.00 359.00 L 515.00 359.00 L 517.00 351.00 L 519.00 351.00 L 520.00 355.00 L 522.00 355.00 L 522.00 352.00 L 528.00 347.00 L 529.00 344.00 L 536.00 344.00 L 537.00 339.00 L 539.00 339.00 L 540.00 343.00 L 544.00 346.00 L 551.00 338.00 L 558.00 334.00 L 567.00 322.00 L 569.00 322.00 L 577.00 313.00 L 580.00 313.00 L 581.00 310.00 L 585.00 308.00 L 582.00 306.00 L 584.00 300.00 L 588.00 301.00 L 588.00 305.00 L 589.00 300.00 L 591.00 302.00 L 593.00 301.00 L 592.00 295.00 L 597.00 283.00 L 603.00 282.00 L 604.00 280.00 L 610.00 280.00 L 611.00 276.00 L 616.00 272.00 L 628.00 272.00 L 633.00 265.00 L 637.00 265.00 L 638.00 261.00 L 645.00 258.00 L 646.00 255.00 L 675.00 228.00 Z " fill="#045eb5"/>
    <path d="M 298.00 539.00 L 300.00 541.00 L 321.00 547.00 L 327.00 545.00 L 357.00 547.00 L 368.00 543.00 L 378.00 542.00 L 380.00 539.00 L 375.00 539.00 L 372.00 542.00 L 365.00 543.00 L 313.00 543.00 Z M 722.00 515.00 L 693.00 508.00 L 630.00 507.00 L 618.00 511.00 L 601.00 511.00 L 596.00 508.00 L 599.00 507.00 L 599.00 497.00 L 604.00 494.00 L 603.00 488.00 L 606.00 487.00 L 604.00 480.00 L 607.00 479.00 L 608.00 475.00 L 611.00 475.00 L 611.00 468.00 L 614.00 467.00 L 615.00 462.00 L 617.00 460.00 L 622.00 461.00 L 637.00 459.00 L 632.00 457.00 L 619.00 457.00 L 613.00 459.00 L 612.00 461.00 L 590.00 459.00 L 588.00 463.00 L 579.00 464.00 L 577.00 467.00 L 568.00 465.00 L 565.00 467.00 L 561.00 466.00 L 557.00 471.00 L 549.00 470.00 L 546.00 474.00 L 540.00 474.00 L 537.00 479.00 L 527.00 479.00 L 525.00 482.00 L 512.00 486.00 L 509.00 490.00 L 496.00 494.00 L 494.00 498.00 L 489.00 498.00 L 485.00 502.00 L 479.00 503.00 L 477.00 506.00 L 473.00 506.00 L 468.00 510.00 L 462.00 511.00 L 461.00 514.00 L 454.00 515.00 L 455.00 516.00 L 453.00 518.00 L 447.00 518.00 L 440.00 523.00 L 437.00 522.00 L 431.00 526.00 L 425.00 526.00 L 420.00 530.00 L 410.00 531.00 L 407.00 534.00 L 398.00 534.00 L 396.00 537.00 L 390.00 538.00 L 401.00 539.00 L 404.00 534.00 L 417.00 535.00 L 421.00 531.00 L 426.00 531.00 L 429.00 527.00 L 439.00 528.00 L 445.00 523.00 L 450.00 524.00 L 454.00 520.00 L 458.00 520.00 L 462.00 515.00 L 467.00 517.00 L 471.00 512.00 L 474.00 512.00 L 479.00 508.00 L 484.00 508.00 L 485.00 512.00 L 482.00 515.00 L 475.00 517.00 L 475.00 524.00 L 468.00 524.00 L 467.00 528.00 L 457.00 528.00 L 457.00 534.00 L 453.00 537.00 L 453.00 539.00 L 456.00 540.00 L 456.00 543.00 L 452.00 544.00 L 454.00 547.00 L 452.00 548.00 L 455.00 550.00 L 440.00 551.00 L 436.00 553.00 L 453.00 553.00 L 455.00 550.00 L 464.00 550.00 L 472.00 545.00 L 483.00 546.00 L 487.00 542.00 L 508.00 538.00 L 512.00 534.00 L 522.00 534.00 L 525.00 531.00 L 532.00 530.00 L 535.00 527.00 L 546.00 527.00 L 550.00 523.00 L 568.00 519.00 L 576.00 519.00 L 581.00 515.00 L 599.00 515.00 L 608.00 511.00 L 622.00 511.00 L 631.00 508.00 L 688.00 508.00 L 698.00 511.00 L 714.00 512.00 Z M 185.00 453.00 L 182.00 454.00 L 178.00 453.00 L 177.00 451.00 L 134.00 451.00 L 130.00 454.00 L 112.00 454.00 L 109.00 458.00 L 93.00 458.00 L 89.00 463.00 L 80.00 462.00 L 73.00 466.00 L 66.00 466.00 L 68.00 467.00 L 66.00 470.00 L 57.00 470.00 L 55.00 474.00 L 48.00 474.00 L 46.00 479.00 L 39.00 478.00 L 40.00 481.00 L 33.00 487.00 L 25.00 486.00 L 25.00 489.00 L 21.00 492.00 L 25.00 501.00 L 25.00 509.00 L 29.00 511.00 L 30.00 518.00 L 34.00 520.00 L 35.00 528.00 L 50.00 528.00 L 39.00 528.00 L 37.00 525.00 L 49.00 519.00 L 54.00 519.00 L 61.00 514.00 L 74.00 513.00 L 79.00 510.00 L 89.00 510.00 L 96.00 506.00 L 144.00 504.00 L 128.00 503.00 L 127.00 500.00 L 123.00 499.00 L 123.00 497.00 L 116.00 496.00 L 115.00 492.00 L 111.00 491.00 L 111.00 484.00 L 107.00 483.00 L 106.00 476.00 L 101.00 479.00 L 99.00 472.00 L 97.00 473.00 L 96.00 469.00 L 86.00 469.00 L 84.00 467.00 L 87.00 465.00 L 100.00 465.00 L 104.00 461.00 L 116.00 460.00 L 132.00 454.00 Z M 6.00 314.00 L 7.00 326.00 L 6.00 335.00 L 2.00 339.00 L 0.00 387.00 L 2.00 393.00 L 2.00 432.00 L 3.00 429.00 L 7.00 432.00 L 8.00 448.00 L 6.00 452.00 L 11.00 456.00 L 12.00 467.00 L 19.00 468.00 L 22.00 464.00 L 28.00 464.00 L 30.00 461.00 L 36.00 460.00 L 38.00 456.00 L 46.00 457.00 L 48.00 453.00 L 55.00 453.00 L 54.00 451.00 L 57.00 448.00 L 66.00 449.00 L 68.00 445.00 L 77.00 445.00 L 82.00 441.00 L 91.00 441.00 L 91.00 438.00 L 94.00 436.00 L 109.00 437.00 L 114.00 436.00 L 117.00 433.00 L 137.00 433.00 L 141.00 431.00 L 141.00 425.00 L 139.00 429.00 L 129.00 429.00 L 122.00 432.00 L 111.00 432.00 L 104.00 430.00 L 94.00 435.00 L 85.00 432.00 L 87.00 430.00 L 91.00 430.00 L 91.00 428.00 L 87.00 427.00 L 86.00 420.00 L 83.00 419.00 L 83.00 416.00 L 80.00 415.00 L 79.00 412.00 L 75.00 411.00 L 75.00 405.00 L 68.00 404.00 L 67.00 397.00 L 56.00 396.00 L 54.00 388.00 L 52.00 388.00 L 51.00 391.00 L 48.00 391.00 L 47.00 388.00 L 43.00 387.00 L 43.00 384.00 L 39.00 383.00 L 39.00 380.00 L 32.00 379.00 L 31.00 375.00 L 28.00 376.00 L 27.00 372.00 L 24.00 372.00 L 23.00 368.00 L 19.00 367.00 L 18.00 360.00 L 16.00 360.00 L 14.00 356.00 L 12.00 357.00 L 11.00 363.00 L 9.00 357.00 L 7.00 400.00 L 5.00 371.00 L 6.00 359.00 L 4.00 358.00 L 4.00 352.00 L 8.00 347.00 L 7.00 328.00 L 9.00 327.00 L 10.00 316.00 L 7.00 316.00 Z M 422.00 189.00 L 421.00 193.00 L 432.00 210.00 L 436.00 223.00 L 440.00 226.00 L 439.00 230.00 L 441.00 231.00 L 442.00 236.00 L 440.00 237.00 L 438.00 232.00 L 432.00 233.00 L 431.00 235.00 L 427.00 235.00 L 422.00 239.00 L 416.00 240.00 L 416.00 242.00 L 410.00 247.00 L 400.00 249.00 L 399.00 252.00 L 388.00 253.00 L 383.00 257.00 L 377.00 257.00 L 371.00 263.00 L 354.00 265.00 L 351.00 291.00 L 349.00 286.00 L 347.00 264.00 L 349.00 262.00 L 351.00 240.00 L 348.00 237.00 L 349.00 233.00 L 347.00 232.00 L 340.00 237.00 L 337.00 246.00 L 334.00 247.00 L 329.00 255.00 L 324.00 258.00 L 319.00 270.00 L 314.00 274.00 L 316.00 277.00 L 311.00 284.00 L 310.00 276.00 L 308.00 276.00 L 307.00 273.00 L 305.00 273.00 L 304.00 276.00 L 297.00 277.00 L 297.00 283.00 L 295.00 286.00 L 292.00 283.00 L 292.00 279.00 L 296.00 275.00 L 297.00 267.00 L 300.00 264.00 L 300.00 261.00 L 304.00 258.00 L 304.00 254.00 L 315.00 237.00 L 315.00 233.00 L 318.00 231.00 L 323.00 220.00 L 326.00 218.00 L 327.00 213.00 L 330.00 210.00 L 330.00 206.00 L 335.00 201.00 L 334.00 198.00 L 333.00 201.00 L 330.00 202.00 L 326.00 213.00 L 324.00 215.00 L 323.00 214.00 L 322.00 219.00 L 320.00 219.00 L 321.00 220.00 L 319.00 221.00 L 318.00 225.00 L 315.00 227.00 L 314.00 234.00 L 310.00 236.00 L 310.00 240.00 L 306.00 244.00 L 306.00 249.00 L 304.00 251.00 L 302.00 250.00 L 302.00 256.00 L 298.00 257.00 L 299.00 262.00 L 297.00 264.00 L 294.00 263.00 L 296.00 271.00 L 291.00 280.00 L 288.00 302.00 L 284.00 310.00 L 287.00 356.00 L 291.00 350.00 L 303.00 347.00 L 305.00 344.00 L 309.00 348.00 L 309.00 344.00 L 307.00 342.00 L 307.00 330.00 L 310.00 326.00 L 308.00 306.00 L 313.00 302.00 L 313.00 289.00 L 316.00 288.00 L 321.00 271.00 L 325.00 268.00 L 329.00 258.00 L 332.00 256.00 L 333.00 250.00 L 336.00 249.00 L 337.00 245.00 L 340.00 244.00 L 340.00 241.00 L 345.00 236.00 L 348.00 237.00 L 346.00 242.00 L 347.00 261.00 L 345.00 262.00 L 347.00 272.00 L 347.00 304.00 L 345.00 305.00 L 345.00 308.00 L 347.00 309.00 L 346.00 310.00 L 348.00 308.00 L 350.00 310.00 L 355.00 326.00 L 356.00 320.00 L 358.00 318.00 L 362.00 318.00 L 365.00 314.00 L 370.00 314.00 L 371.00 312.00 L 379.00 310.00 L 388.00 304.00 L 395.00 304.00 L 396.00 302.00 L 403.00 300.00 L 409.00 295.00 L 414.00 295.00 L 417.00 292.00 L 422.00 294.00 L 428.00 288.00 L 434.00 288.00 L 437.00 284.00 L 455.00 282.00 L 456.00 280.00 L 466.00 280.00 L 467.00 283.00 L 470.00 282.00 L 468.00 276.00 L 463.00 270.00 L 463.00 264.00 L 460.00 262.00 L 460.00 256.00 L 456.00 254.00 L 456.00 249.00 L 452.00 246.00 L 453.00 242.00 L 452.00 243.00 L 449.00 241.00 L 448.00 232.00 L 445.00 230.00 L 441.00 220.00 L 437.00 218.00 L 436.00 211.00 L 429.00 204.00 L 428.00 198.00 L 425.00 198.00 L 425.00 194.00 Z " fill="#1089e8"/>
    <path d="M 288.00 31.00 L 298.00 31.00 L 299.00 33.00 L 301.00 28.00 L 307.00 28.00 L 308.00 32.00 L 303.00 31.00 L 301.00 35.00 L 304.00 36.00 L 304.00 39.00 L 308.00 40.00 L 308.00 43.00 L 316.00 44.00 L 316.00 51.00 L 313.00 52.00 L 313.00 55.00 L 315.00 55.00 L 316.00 51.00 L 323.00 51.00 L 324.00 55.00 L 321.00 56.00 L 321.00 59.00 L 327.00 59.00 L 328.00 63.00 L 332.00 64.00 L 332.00 67.00 L 339.00 67.00 L 340.00 79.00 L 347.00 79.00 L 348.00 83.00 L 351.00 83.00 L 352.00 87.00 L 356.00 88.00 L 356.00 91.00 L 362.00 91.00 L 363.00 100.00 L 367.00 97.00 L 367.00 93.00 L 372.00 90.00 L 371.00 82.00 L 380.00 72.00 L 380.00 69.00 L 382.00 67.00 L 385.00 68.00 L 392.00 78.00 L 392.00 82.00 L 395.00 84.00 L 396.00 90.00 L 400.00 94.00 L 399.00 98.00 L 404.00 102.00 L 404.00 108.00 L 407.00 110.00 L 408.00 117.00 L 413.00 122.00 L 413.00 127.00 L 411.00 129.00 L 416.00 131.00 L 419.00 138.00 L 420.00 131.00 L 423.00 130.00 L 425.00 135.00 L 427.00 135.00 L 428.00 139.00 L 431.00 139.00 L 432.00 142.00 L 439.00 143.00 L 440.00 146.00 L 448.00 148.00 L 448.00 156.00 L 455.00 155.00 L 456.00 159.00 L 463.00 160.00 L 465.00 166.00 L 471.00 168.00 L 472.00 174.00 L 465.00 175.00 L 468.00 179.00 L 476.00 178.00 L 478.00 183.00 L 479.00 181.00 L 485.00 181.00 L 492.00 185.00 L 497.00 185.00 L 499.00 190.00 L 505.00 190.00 L 509.00 194.00 L 513.00 193.00 L 515.00 199.00 L 518.00 198.00 L 521.00 192.00 L 526.00 189.00 L 526.00 185.00 L 533.00 180.00 L 542.00 169.00 L 542.00 165.00 L 547.00 162.00 L 554.00 150.00 L 561.00 142.00 L 563.00 142.00 L 571.00 128.00 L 575.00 125.00 L 575.00 122.00 L 587.00 110.00 L 592.00 101.00 L 601.00 91.00 L 604.00 90.00 L 602.00 84.00 L 597.00 84.00 L 594.00 79.00 L 586.00 76.00 L 583.00 71.00 L 578.00 72.00 L 571.00 66.00 L 570.00 62.00 L 565.00 63.00 L 562.00 60.00 L 563.00 59.00 L 557.00 59.00 L 555.00 54.00 L 549.00 56.00 L 547.00 51.00 L 538.00 51.00 L 536.00 48.00 L 531.00 47.00 L 528.00 42.00 L 521.00 44.00 L 516.00 39.00 L 511.00 39.00 L 509.00 34.00 L 497.00 36.00 L 494.00 34.00 L 494.00 30.00 L 488.00 31.00 L 482.00 26.00 L 482.00 30.00 L 479.00 29.00 L 478.00 26.00 L 474.00 28.00 L 466.00 27.00 L 464.00 22.00 L 456.00 23.00 L 454.00 21.00 L 450.00 23.00 L 438.00 22.00 L 436.00 20.00 L 437.00 18.00 L 429.00 20.00 L 421.00 18.00 L 416.00 19.00 L 412.00 16.00 L 415.00 14.00 L 356.00 14.00 L 346.00 20.00 L 331.00 20.00 L 323.00 24.00 L 301.00 23.00 L 299.00 31.00 L 295.00 28.00 L 290.00 28.00 Z " fill="#b3e04c"/>
    <path d="M 707.00 513.00 L 688.00 509.00 L 631.00 509.00 L 622.00 512.00 L 608.00 512.00 L 599.00 516.00 L 581.00 516.00 L 576.00 520.00 L 555.00 523.00 L 565.00 523.00 L 570.00 520.00 L 577.00 520.00 L 582.00 516.00 L 602.00 516.00 L 610.00 512.00 L 629.00 512.00 L 633.00 510.00 L 655.00 509.00 L 678.00 510.00 L 688.00 513.00 Z M 552.00 524.00 L 546.00 528.00 L 535.00 528.00 L 532.00 531.00 L 525.00 532.00 L 522.00 535.00 L 512.00 535.00 L 508.00 539.00 L 487.00 543.00 L 483.00 547.00 L 472.00 546.00 L 464.00 551.00 L 455.00 551.00 L 451.00 548.00 L 453.00 547.00 L 451.00 544.00 L 455.00 543.00 L 456.00 546.00 L 459.00 545.00 L 452.00 539.00 L 452.00 537.00 L 456.00 534.00 L 456.00 528.00 L 467.00 527.00 L 468.00 523.00 L 475.00 523.00 L 475.00 516.00 L 482.00 514.00 L 485.00 508.00 L 487.00 509.00 L 492.00 507.00 L 487.00 505.00 L 484.00 509.00 L 479.00 509.00 L 476.00 512.00 L 471.00 513.00 L 467.00 518.00 L 462.00 516.00 L 458.00 521.00 L 454.00 521.00 L 450.00 525.00 L 445.00 524.00 L 439.00 529.00 L 429.00 528.00 L 429.00 530.00 L 426.00 532.00 L 421.00 532.00 L 417.00 536.00 L 404.00 535.00 L 401.00 540.00 L 393.00 540.00 L 389.00 538.00 L 389.00 541.00 L 384.00 543.00 L 381.00 539.00 L 378.00 543.00 L 368.00 544.00 L 357.00 548.00 L 331.00 546.00 L 321.00 548.00 L 318.00 547.00 L 319.00 549.00 L 364.00 549.00 L 367.00 551.00 L 365.00 553.00 L 346.00 554.00 L 350.00 558.00 L 379.00 558.00 L 384.00 560.00 L 430.00 558.00 L 435.00 555.00 L 453.00 555.00 L 460.00 551.00 L 485.00 547.00 L 488.00 543.00 L 497.00 543.00 L 502.00 540.00 L 509.00 539.00 L 515.00 535.00 L 523.00 535.00 L 526.00 532.00 L 533.00 531.00 L 538.00 528.00 L 549.00 527.00 Z M 360.00 548.00 L 371.00 544.00 L 380.00 546.00 L 385.00 545.00 L 389.00 547.00 L 385.00 549.00 Z M 55.00 519.00 L 61.00 515.00 L 73.00 515.00 L 81.00 511.00 L 94.00 510.00 L 100.00 507.00 L 174.00 506.00 L 183.00 510.00 L 198.00 510.00 L 202.00 513.00 L 216.00 514.00 L 220.00 518.00 L 232.00 518.00 L 237.00 522.00 L 242.00 522.00 L 245.00 526.00 L 256.00 526.00 L 261.00 530.00 L 274.00 533.00 L 281.00 538.00 L 285.00 538.00 L 281.00 538.00 L 275.00 534.00 L 275.00 531.00 L 289.00 532.00 L 294.00 536.00 L 305.00 537.00 L 303.00 535.00 L 305.00 533.00 L 312.00 533.00 L 314.00 535.00 L 320.00 533.00 L 323.00 536.00 L 320.00 537.00 L 330.00 537.00 L 334.00 532.00 L 366.00 533.00 L 371.00 532.00 L 371.00 530.00 L 381.00 532.00 L 382.00 529.00 L 384.00 532.00 L 384.00 524.00 L 380.00 527.00 L 378.00 522.00 L 369.00 523.00 L 363.00 518.00 L 354.00 519.00 L 351.00 515.00 L 341.00 515.00 L 338.00 511.00 L 333.00 511.00 L 331.00 506.00 L 322.00 507.00 L 320.00 503.00 L 316.00 503.00 L 314.00 499.00 L 306.00 499.00 L 304.00 495.00 L 301.00 495.00 L 298.00 491.00 L 293.00 491.00 L 288.00 486.00 L 283.00 487.00 L 279.00 482.00 L 276.00 482.00 L 275.00 479.00 L 272.00 478.00 L 272.00 483.00 L 277.00 483.00 L 281.00 488.00 L 285.00 488.00 L 291.00 492.00 L 292.00 491.00 L 298.00 496.00 L 302.00 495.00 L 304.00 499.00 L 309.00 500.00 L 311.00 504.00 L 318.00 504.00 L 322.00 508.00 L 337.00 513.00 L 339.00 516.00 L 347.00 516.00 L 351.00 520.00 L 355.00 520.00 L 362.00 524.00 L 369.00 523.00 L 371.00 525.00 L 371.00 529.00 L 359.00 527.00 L 353.00 530.00 L 332.00 532.00 L 270.00 530.00 L 268.00 528.00 L 269.00 526.00 L 299.00 526.00 L 299.00 524.00 L 292.00 525.00 L 291.00 523.00 L 272.00 523.00 L 268.00 526.00 L 261.00 526.00 L 261.00 522.00 L 267.00 522.00 L 267.00 520.00 L 271.00 519.00 L 271.00 517.00 L 252.00 515.00 L 251.00 512.00 L 236.00 508.00 L 235.00 505.00 L 228.00 507.00 L 227.00 505.00 L 219.00 502.00 L 219.00 497.00 L 212.00 499.00 L 211.00 496.00 L 208.00 496.00 L 207.00 492.00 L 203.00 491.00 L 203.00 488.00 L 184.00 487.00 L 183.00 484.00 L 179.00 483.00 L 179.00 476.00 L 172.00 475.00 L 170.00 468.00 L 164.00 467.00 L 163.00 464.00 L 160.00 464.00 L 159.00 462.00 L 122.00 460.00 L 121.00 459.00 L 125.00 457.00 L 184.00 455.00 L 185.00 457.00 L 190.00 457.00 L 193.00 460.00 L 205.00 460.00 L 207.00 462.00 L 207.00 460.00 L 210.00 459.00 L 218.00 464.00 L 223.00 463.00 L 229.00 468.00 L 240.00 467.00 L 242.00 471.00 L 249.00 472.00 L 251.00 475.00 L 260.00 475.00 L 263.00 479.00 L 269.00 480.00 L 269.00 478.00 L 265.00 479.00 L 263.00 475.00 L 256.00 474.00 L 254.00 470.00 L 244.00 470.00 L 242.00 466.00 L 238.00 467.00 L 234.00 466.00 L 233.00 464.00 L 231.00 466.00 L 228.00 464.00 L 229.00 462.00 L 219.00 463.00 L 213.00 458.00 L 197.00 459.00 L 193.00 454.00 L 190.00 457.00 L 189.00 454.00 L 186.00 453.00 L 184.00 455.00 L 132.00 455.00 L 116.00 461.00 L 101.00 462.00 L 102.00 463.00 L 100.00 466.00 L 85.00 467.00 L 96.00 468.00 L 97.00 472.00 L 100.00 472.00 L 101.00 478.00 L 106.00 475.00 L 108.00 483.00 L 112.00 484.00 L 112.00 491.00 L 115.00 491.00 L 116.00 495.00 L 123.00 496.00 L 124.00 499.00 L 128.00 500.00 L 128.00 502.00 L 145.00 504.00 L 132.00 506.00 L 96.00 507.00 L 89.00 511.00 L 79.00 511.00 L 74.00 514.00 L 61.00 515.00 Z M 35.00 227.00 L 35.00 238.00 L 31.00 240.00 L 30.00 247.00 L 27.00 250.00 L 26.00 249.00 L 27.00 257.00 L 23.00 260.00 L 22.00 259.00 L 23.00 269.00 L 18.00 272.00 L 19.00 281.00 L 17.00 283.00 L 14.00 282.00 L 15.00 298.00 L 10.00 301.00 L 11.00 309.00 L 7.00 312.00 L 7.00 315.00 L 11.00 316.00 L 10.00 327.00 L 8.00 328.00 L 9.00 347.00 L 5.00 352.00 L 5.00 358.00 L 7.00 359.00 L 7.00 399.00 L 8.00 357.00 L 11.00 357.00 L 11.00 362.00 L 11.00 357.00 L 14.00 355.00 L 16.00 359.00 L 19.00 360.00 L 20.00 367.00 L 23.00 367.00 L 24.00 371.00 L 28.00 372.00 L 28.00 375.00 L 31.00 374.00 L 32.00 378.00 L 39.00 379.00 L 40.00 383.00 L 43.00 383.00 L 44.00 387.00 L 47.00 387.00 L 48.00 390.00 L 51.00 390.00 L 51.00 388.00 L 54.00 387.00 L 56.00 395.00 L 67.00 396.00 L 68.00 403.00 L 76.00 405.00 L 76.00 411.00 L 79.00 411.00 L 80.00 414.00 L 84.00 416.00 L 84.00 419.00 L 87.00 420.00 L 88.00 427.00 L 92.00 428.00 L 91.00 431.00 L 86.00 432.00 L 94.00 434.00 L 104.00 429.00 L 111.00 431.00 L 122.00 431.00 L 129.00 428.00 L 139.00 428.00 L 141.00 424.00 L 141.00 416.00 L 140.00 420.00 L 137.00 419.00 L 136.00 410.00 L 139.00 407.00 L 141.00 411.00 L 141.00 408.00 L 139.00 407.00 L 140.00 400.00 L 138.00 399.00 L 136.00 388.00 L 138.00 385.00 L 141.00 387.00 L 140.00 371.00 L 141.00 365.00 L 143.00 363.00 L 144.00 364.00 L 144.00 361.00 L 141.00 360.00 L 140.00 356.00 L 145.00 352.00 L 144.00 344.00 L 149.00 341.00 L 149.00 336.00 L 148.00 339.00 L 145.00 339.00 L 144.00 346.00 L 139.00 353.00 L 139.00 373.00 L 137.00 376.00 L 134.00 373.00 L 132.00 405.00 L 130.00 376.00 L 123.00 375.00 L 123.00 372.00 L 127.00 371.00 L 127.00 368.00 L 124.00 368.00 L 124.00 371.00 L 120.00 372.00 L 119.00 365.00 L 112.00 364.00 L 111.00 360.00 L 108.00 360.00 L 107.00 356.00 L 103.00 355.00 L 103.00 352.00 L 96.00 352.00 L 94.00 345.00 L 89.00 348.00 L 87.00 344.00 L 83.00 343.00 L 83.00 337.00 L 68.00 336.00 L 67.00 332.00 L 64.00 332.00 L 63.00 328.00 L 60.00 328.00 L 59.00 325.00 L 55.00 323.00 L 55.00 320.00 L 48.00 320.00 L 47.00 316.00 L 39.00 314.00 L 40.00 311.00 L 43.00 311.00 L 43.00 308.00 L 36.00 308.00 L 35.00 304.00 L 28.00 304.00 L 27.00 296.00 L 22.00 296.00 L 22.00 298.00 L 18.00 301.00 L 16.00 293.00 L 18.00 288.00 L 21.00 286.00 L 20.00 276.00 L 24.00 270.00 L 23.00 263.00 L 27.00 260.00 L 31.00 250.00 L 30.00 244.00 L 35.00 240.00 L 35.00 233.00 L 38.00 231.00 L 39.00 226.00 L 37.00 228.00 Z M 402.00 150.00 L 401.00 154.00 L 405.00 159.00 L 405.00 163.00 L 408.00 165.00 L 408.00 170.00 L 412.00 173.00 L 413.00 181.00 L 420.00 190.00 L 419.00 195.00 L 422.00 196.00 L 422.00 203.00 L 419.00 204.00 L 417.00 200.00 L 414.00 205.00 L 408.00 208.00 L 407.00 212.00 L 400.00 212.00 L 399.00 216.00 L 392.00 217.00 L 391.00 220.00 L 380.00 220.00 L 379.00 224.00 L 372.00 225.00 L 371.00 227.00 L 368.00 227.00 L 367.00 225.00 L 360.00 225.00 L 357.00 227.00 L 357.00 244.00 L 355.00 248.00 L 353.00 246.00 L 354.00 224.00 L 346.00 227.00 L 344.00 226.00 L 340.00 235.00 L 338.00 234.00 L 338.00 228.00 L 336.00 228.00 L 335.00 225.00 L 331.00 225.00 L 330.00 223.00 L 327.00 227.00 L 325.00 222.00 L 344.00 189.00 L 342.00 185.00 L 346.00 184.00 L 351.00 178.00 L 351.00 173.00 L 355.00 170.00 L 355.00 166.00 L 358.00 164.00 L 363.00 154.00 L 362.00 150.00 L 362.00 155.00 L 358.00 156.00 L 354.00 168.00 L 352.00 170.00 L 351.00 167.00 L 350.00 177.00 L 346.00 179.00 L 345.00 183.00 L 342.00 183.00 L 343.00 190.00 L 339.00 192.00 L 338.00 196.00 L 335.00 196.00 L 336.00 201.00 L 331.00 206.00 L 331.00 210.00 L 322.00 225.00 L 324.00 224.00 L 326.00 226.00 L 323.00 234.00 L 321.00 232.00 L 321.00 227.00 L 316.00 233.00 L 316.00 237.00 L 312.00 241.00 L 309.00 250.00 L 305.00 254.00 L 305.00 258.00 L 301.00 261.00 L 301.00 264.00 L 298.00 267.00 L 297.00 275.00 L 293.00 279.00 L 294.00 285.00 L 296.00 283.00 L 296.00 277.00 L 304.00 275.00 L 305.00 272.00 L 311.00 276.00 L 311.00 283.00 L 313.00 281.00 L 313.00 278.00 L 315.00 277.00 L 313.00 274.00 L 318.00 270.00 L 323.00 258.00 L 328.00 255.00 L 334.00 246.00 L 336.00 246.00 L 339.00 237.00 L 347.00 231.00 L 350.00 233.00 L 349.00 237.00 L 352.00 240.00 L 350.00 262.00 L 348.00 264.00 L 351.00 290.00 L 354.00 264.00 L 371.00 262.00 L 377.00 256.00 L 383.00 256.00 L 388.00 252.00 L 399.00 251.00 L 400.00 248.00 L 410.00 246.00 L 416.00 239.00 L 422.00 238.00 L 423.00 236.00 L 431.00 234.00 L 432.00 232.00 L 438.00 231.00 L 439.00 235.00 L 441.00 236.00 L 441.00 233.00 L 438.00 230.00 L 439.00 226.00 L 435.00 223.00 L 431.00 210.00 L 420.00 193.00 L 421.00 187.00 L 417.00 184.00 L 417.00 178.00 L 413.00 176.00 L 412.00 170.00 L 410.00 170.00 L 409.00 164.00 L 405.00 159.00 L 405.00 155.00 Z " fill="#1da1f1"/>
    <path d="M 421.00 131.00 L 419.00 146.00 L 424.00 150.00 L 424.00 155.00 L 427.00 158.00 L 427.00 167.00 L 433.00 166.00 L 437.00 169.00 L 437.00 167.00 L 440.00 167.00 L 440.00 172.00 L 457.00 170.00 L 460.00 172.00 L 457.00 174.00 L 471.00 174.00 L 470.00 168.00 L 465.00 167.00 L 463.00 161.00 L 456.00 160.00 L 455.00 156.00 L 448.00 157.00 L 447.00 148.00 L 440.00 147.00 L 439.00 144.00 L 432.00 143.00 L 431.00 140.00 L 427.00 139.00 L 427.00 136.00 L 424.00 135.00 L 423.00 131.00 Z M 307.00 29.00 L 301.00 29.00 L 299.00 34.00 L 298.00 32.00 L 288.00 33.00 L 287.00 31.00 L 273.00 31.00 L 278.00 34.00 L 277.00 36.00 L 272.00 36.00 L 271.00 33.00 L 269.00 36.00 L 259.00 34.00 L 257.00 39.00 L 251.00 39.00 L 247.00 43.00 L 238.00 43.00 L 235.00 47.00 L 229.00 46.00 L 226.00 50.00 L 220.00 50.00 L 217.00 55.00 L 210.00 54.00 L 208.00 58.00 L 204.00 58.00 L 201.00 62.00 L 196.00 62.00 L 196.00 64.00 L 192.00 67.00 L 189.00 66.00 L 188.00 70.00 L 181.00 70.00 L 178.00 74.00 L 173.00 75.00 L 158.00 87.00 L 158.00 92.00 L 166.00 98.00 L 174.00 109.00 L 176.00 108.00 L 179.00 111.00 L 179.00 116.00 L 181.00 115.00 L 183.00 117.00 L 183.00 121.00 L 191.00 126.00 L 190.00 129.00 L 196.00 135.00 L 195.00 136.00 L 197.00 134.00 L 198.00 135.00 L 197.00 137.00 L 199.00 138.00 L 199.00 141.00 L 211.00 150.00 L 211.00 156.00 L 220.00 168.00 L 226.00 170.00 L 225.00 173.00 L 231.00 179.00 L 230.00 181.00 L 237.00 187.00 L 236.00 188.00 L 238.00 189.00 L 239.00 194.00 L 247.00 198.00 L 246.00 202.00 L 250.00 205.00 L 253.00 205.00 L 255.00 202.00 L 259.00 201.00 L 261.00 196.00 L 269.00 197.00 L 271.00 193.00 L 274.00 193.00 L 279.00 188.00 L 282.00 191.00 L 281.00 192.00 L 290.00 183.00 L 293.00 186.00 L 299.00 185.00 L 306.00 180.00 L 309.00 181.00 L 307.00 180.00 L 310.00 176.00 L 321.00 177.00 L 320.00 174.00 L 322.00 173.00 L 325.00 177.00 L 326.00 174.00 L 328.00 176.00 L 328.00 173.00 L 332.00 176.00 L 340.00 172.00 L 339.00 170.00 L 345.00 161.00 L 346.00 154.00 L 349.00 150.00 L 349.00 145.00 L 352.00 144.00 L 351.00 142.00 L 356.00 134.00 L 352.00 130.00 L 356.00 127.00 L 359.00 120.00 L 361.00 122.00 L 359.00 115.00 L 359.00 104.00 L 361.00 104.00 L 362.00 110.00 L 365.00 111.00 L 364.00 110.00 L 366.00 109.00 L 363.00 105.00 L 367.00 98.00 L 364.00 101.00 L 362.00 100.00 L 362.00 92.00 L 356.00 92.00 L 355.00 88.00 L 352.00 88.00 L 351.00 84.00 L 347.00 83.00 L 347.00 80.00 L 340.00 80.00 L 339.00 68.00 L 332.00 68.00 L 331.00 64.00 L 327.00 63.00 L 327.00 60.00 L 321.00 60.00 L 320.00 56.00 L 323.00 55.00 L 323.00 52.00 L 316.00 52.00 L 315.00 44.00 L 308.00 44.00 L 307.00 40.00 L 304.00 40.00 L 303.00 36.00 L 300.00 35.00 L 303.00 30.00 L 307.00 32.00 Z " fill="#9cdc64"/>
    <path d="M 655.00 513.00 L 611.00 513.00 L 605.00 517.00 L 584.00 517.00 L 579.00 521.00 L 571.00 521.00 L 565.00 525.00 L 552.00 525.00 L 548.00 529.00 L 527.00 533.00 L 522.00 537.00 L 513.00 537.00 L 511.00 540.00 L 504.00 541.00 L 500.00 544.00 L 490.00 544.00 L 486.00 548.00 L 469.00 552.00 L 461.00 552.00 L 455.00 556.00 L 441.00 556.00 L 429.00 560.00 L 415.00 560.00 L 402.00 563.00 L 380.00 563.00 L 365.00 560.00 L 353.00 560.00 L 361.00 560.00 L 368.00 563.00 L 406.00 564.00 L 418.00 560.00 L 436.00 560.00 L 441.00 557.00 L 446.00 558.00 L 453.00 556.00 L 459.00 557.00 L 462.00 552.00 L 477.00 553.00 L 480.00 549.00 L 488.00 550.00 L 483.00 556.00 L 476.00 557.00 L 475.00 560.00 L 468.00 559.00 L 468.00 563.00 L 476.00 564.00 L 476.00 571.00 L 472.00 572.00 L 471.00 568.00 L 468.00 568.00 L 468.00 571.00 L 464.00 572.00 L 463.00 584.00 L 460.00 584.00 L 459.00 580.00 L 457.00 580.00 L 456.00 587.00 L 448.00 588.00 L 447.00 592.00 L 444.00 592.00 L 443.00 588.00 L 440.00 588.00 L 440.00 591.00 L 436.00 592.00 L 435.00 596.00 L 432.00 596.00 L 431.00 592.00 L 428.00 592.00 L 428.00 595.00 L 424.00 596.00 L 424.00 599.00 L 420.00 600.00 L 419.00 604.00 L 416.00 604.00 L 415.00 600.00 L 412.00 600.00 L 411.00 604.00 L 404.00 604.00 L 403.00 608.00 L 392.00 608.00 L 392.00 610.00 L 412.00 611.00 L 412.00 613.00 L 356.00 614.00 L 380.00 616.00 L 428.00 614.00 L 425.00 614.00 L 423.00 611.00 L 429.00 609.00 L 441.00 610.00 L 441.00 614.00 L 446.00 610.00 L 455.00 610.00 L 467.00 607.00 L 467.00 602.00 L 475.00 602.00 L 477.00 604.00 L 475.00 606.00 L 480.00 602.00 L 490.00 602.00 L 495.00 599.00 L 493.00 597.00 L 495.00 594.00 L 501.00 594.00 L 502.00 596.00 L 500.00 598.00 L 505.00 594.00 L 510.00 594.00 L 506.00 592.00 L 509.00 590.00 L 514.00 590.00 L 514.00 594.00 L 517.00 590.00 L 530.00 586.00 L 526.00 585.00 L 529.00 582.00 L 533.00 582.00 L 535.00 584.00 L 533.00 586.00 L 536.00 582.00 L 544.00 581.00 L 547.00 578.00 L 552.00 577.00 L 554.00 574.00 L 561.00 574.00 L 564.00 570.00 L 567.00 570.00 L 572.00 566.00 L 576.00 566.00 L 579.00 562.00 L 590.00 558.00 L 593.00 554.00 L 601.00 553.00 L 609.00 546.00 L 616.00 546.00 L 619.00 542.00 L 624.00 541.00 L 624.00 536.00 L 633.00 538.00 L 636.00 533.00 L 645.00 532.00 L 636.00 530.00 L 635.00 524.00 L 639.00 523.00 L 640.00 516.00 L 655.00 515.00 Z M 102.00 134.00 L 100.00 138.00 L 95.00 140.00 L 88.00 151.00 L 86.00 150.00 L 87.00 153.00 L 79.00 159.00 L 77.00 165.00 L 75.00 163.00 L 75.00 170.00 L 70.00 170.00 L 70.00 177.00 L 63.00 183.00 L 62.00 188.00 L 60.00 190.00 L 58.00 189.00 L 59.00 188.00 L 58.00 189.00 L 60.00 191.00 L 59.00 195.00 L 54.00 198.00 L 56.00 201.00 L 51.00 205.00 L 52.00 209.00 L 48.00 212.00 L 48.00 216.00 L 45.00 218.00 L 45.00 222.00 L 41.00 228.00 L 42.00 235.00 L 38.00 236.00 L 38.00 242.00 L 40.00 243.00 L 41.00 251.00 L 44.00 252.00 L 43.00 258.00 L 48.00 258.00 L 51.00 260.00 L 53.00 270.00 L 58.00 270.00 L 61.00 275.00 L 70.00 275.00 L 72.00 277.00 L 72.00 282.00 L 83.00 283.00 L 85.00 291.00 L 103.00 292.00 L 104.00 299.00 L 111.00 299.00 L 112.00 303.00 L 116.00 304.00 L 116.00 307.00 L 123.00 307.00 L 124.00 311.00 L 128.00 312.00 L 128.00 315.00 L 138.00 315.00 L 141.00 323.00 L 143.00 324.00 L 142.00 330.00 L 144.00 334.00 L 146.00 326.00 L 151.00 322.00 L 150.00 314.00 L 155.00 310.00 L 155.00 306.00 L 159.00 303.00 L 159.00 298.00 L 165.00 291.00 L 169.00 292.00 L 167.00 286.00 L 172.00 283.00 L 174.00 278.00 L 176.00 279.00 L 175.00 274.00 L 180.00 271.00 L 183.00 265.00 L 185.00 266.00 L 187.00 263.00 L 188.00 264.00 L 189.00 258.00 L 192.00 256.00 L 193.00 257.00 L 192.00 254.00 L 206.00 241.00 L 179.00 265.00 L 179.00 269.00 L 171.00 275.00 L 169.00 271.00 L 164.00 272.00 L 163.00 268.00 L 156.00 268.00 L 155.00 264.00 L 148.00 263.00 L 146.00 260.00 L 140.00 260.00 L 139.00 256.00 L 132.00 255.00 L 131.00 252.00 L 127.00 251.00 L 127.00 248.00 L 124.00 248.00 L 123.00 245.00 L 120.00 245.00 L 119.00 243.00 L 116.00 243.00 L 115.00 240.00 L 112.00 240.00 L 110.00 233.00 L 97.00 231.00 L 95.00 224.00 L 87.00 223.00 L 87.00 220.00 L 90.00 219.00 L 90.00 217.00 L 84.00 216.00 L 83.00 212.00 L 79.00 211.00 L 79.00 208.00 L 73.00 208.00 L 71.00 200.00 L 68.00 199.00 L 66.00 193.00 L 65.00 196.00 L 62.00 197.00 L 61.00 192.00 L 67.00 182.00 L 72.00 178.00 L 72.00 173.00 L 79.00 165.00 L 79.00 160.00 L 86.00 155.00 L 94.00 145.00 L 95.00 141.00 L 102.00 138.00 Z M 384.00 115.00 L 380.00 120.00 L 378.00 118.00 L 380.00 120.00 L 379.00 123.00 L 373.00 130.00 L 376.00 133.00 L 373.00 136.00 L 370.00 136.00 L 372.00 141.00 L 367.00 146.00 L 357.00 171.00 L 353.00 174.00 L 354.00 179.00 L 350.00 182.00 L 351.00 186.00 L 354.00 182.00 L 367.00 183.00 L 368.00 186.00 L 376.00 183.00 L 383.00 183.00 L 384.00 180.00 L 390.00 182.00 L 391.00 179.00 L 395.00 179.00 L 396.00 176.00 L 402.00 175.00 L 406.00 172.00 L 408.00 179.00 L 409.00 175.00 L 406.00 172.00 L 406.00 167.00 L 404.00 166.00 L 399.00 155.00 L 401.00 147.00 L 400.00 148.00 L 396.00 145.00 L 396.00 141.00 L 392.00 137.00 L 392.00 126.00 L 391.00 128.00 L 389.00 126.00 L 389.00 121.00 L 384.00 117.00 Z M 382.00 123.00 L 385.00 123.00 L 388.00 128.00 L 388.00 140.00 L 386.00 138.00 L 386.00 133.00 L 381.00 133.00 L 379.00 137.00 L 377.00 136.00 L 377.00 131.00 Z " fill="#2bb5f6"/>
    <path d="M 303.00 543.00 L 306.00 546.00 L 323.00 550.00 L 328.00 554.00 L 339.00 554.00 L 349.00 558.00 L 345.00 554.00 L 366.00 551.00 L 350.00 549.00 L 319.00 550.00 L 317.00 547.00 L 306.00 546.00 Z M 627.00 513.00 L 655.00 512.00 L 655.00 516.00 L 640.00 517.00 L 640.00 523.00 L 636.00 524.00 L 636.00 529.00 L 646.00 531.00 L 647.00 526.00 L 654.00 525.00 L 656.00 527.00 L 663.00 525.00 L 658.00 526.00 L 656.00 524.00 L 657.00 523.00 L 671.00 522.00 L 672.00 524.00 L 676.00 518.00 L 682.00 518.00 L 684.00 520.00 L 683.00 521.00 L 687.00 517.00 L 702.00 517.00 L 701.00 515.00 L 703.00 514.00 L 688.00 514.00 L 678.00 511.00 L 655.00 510.00 L 633.00 511.00 Z M 122.00 459.00 L 159.00 461.00 L 160.00 463.00 L 163.00 463.00 L 164.00 466.00 L 170.00 467.00 L 172.00 474.00 L 179.00 475.00 L 180.00 483.00 L 183.00 483.00 L 184.00 486.00 L 203.00 487.00 L 204.00 491.00 L 208.00 492.00 L 208.00 495.00 L 211.00 495.00 L 212.00 498.00 L 219.00 496.00 L 220.00 502.00 L 223.00 502.00 L 228.00 506.00 L 235.00 504.00 L 236.00 507.00 L 251.00 511.00 L 252.00 514.00 L 271.00 516.00 L 271.00 520.00 L 268.00 520.00 L 267.00 523.00 L 261.00 523.00 L 261.00 525.00 L 268.00 525.00 L 272.00 522.00 L 291.00 522.00 L 292.00 524.00 L 299.00 523.00 L 299.00 527.00 L 277.00 526.00 L 269.00 527.00 L 270.00 529.00 L 332.00 531.00 L 353.00 529.00 L 359.00 526.00 L 366.00 526.00 L 370.00 529.00 L 369.00 524.00 L 362.00 525.00 L 355.00 521.00 L 351.00 521.00 L 347.00 517.00 L 339.00 517.00 L 337.00 514.00 L 322.00 509.00 L 318.00 505.00 L 311.00 505.00 L 309.00 501.00 L 305.00 501.00 L 302.00 496.00 L 298.00 497.00 L 292.00 492.00 L 291.00 493.00 L 285.00 489.00 L 281.00 489.00 L 277.00 484.00 L 272.00 484.00 L 270.00 479.00 L 269.00 481.00 L 263.00 480.00 L 260.00 476.00 L 251.00 476.00 L 249.00 473.00 L 242.00 472.00 L 240.00 468.00 L 229.00 469.00 L 223.00 464.00 L 218.00 465.00 L 210.00 460.00 L 208.00 460.00 L 207.00 463.00 L 205.00 461.00 L 193.00 461.00 L 192.00 459.00 L 185.00 458.00 L 184.00 456.00 Z M 50.00 206.00 L 50.00 208.00 L 47.00 209.00 L 47.00 214.00 L 43.00 217.00 L 43.00 222.00 L 38.00 225.00 L 40.00 226.00 L 39.00 231.00 L 36.00 233.00 L 36.00 240.00 L 31.00 244.00 L 32.00 250.00 L 28.00 260.00 L 24.00 263.00 L 25.00 270.00 L 21.00 276.00 L 22.00 286.00 L 19.00 288.00 L 17.00 293.00 L 18.00 300.00 L 22.00 295.00 L 27.00 295.00 L 28.00 303.00 L 35.00 303.00 L 36.00 307.00 L 44.00 308.00 L 44.00 311.00 L 40.00 312.00 L 40.00 314.00 L 47.00 315.00 L 48.00 319.00 L 55.00 319.00 L 56.00 323.00 L 59.00 324.00 L 60.00 327.00 L 63.00 327.00 L 64.00 331.00 L 68.00 332.00 L 68.00 335.00 L 83.00 336.00 L 84.00 343.00 L 87.00 343.00 L 89.00 347.00 L 94.00 344.00 L 96.00 351.00 L 103.00 351.00 L 104.00 355.00 L 107.00 355.00 L 108.00 359.00 L 112.00 360.00 L 112.00 363.00 L 119.00 364.00 L 120.00 371.00 L 123.00 371.00 L 124.00 375.00 L 131.00 376.00 L 132.00 404.00 L 133.00 373.00 L 134.00 372.00 L 137.00 375.00 L 138.00 373.00 L 138.00 353.00 L 143.00 346.00 L 144.00 339.00 L 148.00 338.00 L 149.00 340.00 L 147.00 327.00 L 149.00 324.00 L 152.00 324.00 L 152.00 318.00 L 155.00 314.00 L 157.00 314.00 L 156.00 308.00 L 160.00 306.00 L 160.00 299.00 L 162.00 297.00 L 164.00 298.00 L 165.00 292.00 L 160.00 298.00 L 160.00 303.00 L 156.00 306.00 L 156.00 310.00 L 151.00 314.00 L 152.00 322.00 L 147.00 326.00 L 147.00 330.00 L 144.00 335.00 L 141.00 328.00 L 145.00 320.00 L 141.00 324.00 L 138.00 316.00 L 128.00 316.00 L 127.00 312.00 L 123.00 311.00 L 123.00 308.00 L 116.00 308.00 L 115.00 304.00 L 111.00 303.00 L 111.00 300.00 L 104.00 300.00 L 103.00 293.00 L 85.00 292.00 L 83.00 290.00 L 83.00 284.00 L 72.00 283.00 L 70.00 276.00 L 61.00 276.00 L 58.00 271.00 L 53.00 271.00 L 50.00 260.00 L 42.00 258.00 L 43.00 252.00 L 40.00 251.00 L 39.00 243.00 L 37.00 242.00 L 37.00 236.00 L 39.00 234.00 L 41.00 235.00 L 40.00 228.00 L 44.00 222.00 L 44.00 218.00 L 47.00 216.00 L 47.00 212.00 L 51.00 209.00 Z M 400.00 152.00 L 402.00 160.00 L 407.00 167.00 L 407.00 172.00 L 404.00 175.00 L 396.00 177.00 L 396.00 179.00 L 391.00 180.00 L 390.00 183.00 L 384.00 181.00 L 383.00 184.00 L 372.00 185.00 L 371.00 187.00 L 368.00 187.00 L 367.00 184.00 L 354.00 183.00 L 351.00 187.00 L 349.00 182.00 L 353.00 179.00 L 352.00 174.00 L 356.00 171.00 L 366.00 148.00 L 363.00 149.00 L 364.00 154.00 L 359.00 164.00 L 356.00 166.00 L 356.00 170.00 L 352.00 173.00 L 352.00 178.00 L 346.00 185.00 L 343.00 185.00 L 345.00 188.00 L 335.00 204.00 L 326.00 225.00 L 322.00 226.00 L 323.00 233.00 L 325.00 226.00 L 327.00 226.00 L 330.00 222.00 L 339.00 228.00 L 339.00 234.00 L 341.00 233.00 L 341.00 229.00 L 344.00 225.00 L 346.00 226.00 L 354.00 223.00 L 355.00 247.00 L 357.00 226.00 L 360.00 224.00 L 367.00 224.00 L 368.00 226.00 L 371.00 226.00 L 372.00 224.00 L 379.00 223.00 L 380.00 219.00 L 391.00 219.00 L 392.00 216.00 L 399.00 215.00 L 400.00 211.00 L 407.00 211.00 L 407.00 208.00 L 414.00 204.00 L 417.00 199.00 L 419.00 203.00 L 421.00 203.00 L 421.00 196.00 L 418.00 195.00 L 419.00 190.00 L 412.00 181.00 L 411.00 173.00 L 407.00 170.00 L 407.00 165.00 L 404.00 163.00 L 404.00 159.00 Z " fill="#1ea6f6"/>
    <path d="M 729.00 548.00 L 725.00 548.00 L 724.00 553.00 L 720.00 557.00 L 720.00 561.00 L 712.00 570.00 L 712.00 574.00 L 704.00 582.00 L 704.00 586.00 L 700.00 588.00 L 692.00 601.00 L 682.00 611.00 L 672.00 625.00 L 667.00 628.00 L 664.00 634.00 L 660.00 636.00 L 641.00 655.00 L 638.00 655.00 L 620.00 671.00 L 607.00 679.00 L 605.00 683.00 L 601.00 683.00 L 595.00 687.00 L 593.00 691.00 L 588.00 690.00 L 585.00 687.00 L 583.00 690.00 L 587.00 690.00 L 588.00 692.00 L 585.00 695.00 L 582.00 694.00 L 580.00 698.00 L 576.00 698.00 L 573.00 703.00 L 568.00 702.00 L 565.00 706.00 L 561.00 706.00 L 562.00 707.00 L 558.00 711.00 L 550.00 708.00 L 545.00 709.00 L 551.00 710.00 L 552.00 712.00 L 550.00 714.00 L 544.00 714.00 L 541.00 718.00 L 535.00 718.00 L 533.00 722.00 L 525.00 722.00 L 524.00 721.00 L 527.00 718.00 L 531.00 718.00 L 531.00 716.00 L 527.00 716.00 L 523.00 721.00 L 525.00 724.00 L 522.00 726.00 L 512.00 725.00 L 515.00 727.00 L 513.00 730.00 L 502.00 730.00 L 499.00 727.00 L 496.00 727.00 L 492.00 730.00 L 501.00 730.00 L 502.00 732.00 L 500.00 734.00 L 490.00 734.00 L 487.00 731.00 L 476.00 733.00 L 474.00 738.00 L 471.00 735.00 L 464.00 736.00 L 463.00 738.00 L 471.00 738.00 L 472.00 740.00 L 470.00 742.00 L 444.00 740.00 L 444.00 742.00 L 457.00 742.00 L 457.00 745.00 L 434.00 746.00 L 431.00 743.00 L 424.00 743.00 L 424.00 745.00 L 432.00 746.00 L 434.00 748.00 L 423.00 751.00 L 397.00 750.00 L 380.00 752.00 L 342.00 752.00 L 325.00 747.00 L 312.00 746.00 L 305.00 748.00 L 302.00 744.00 L 296.00 744.00 L 287.00 740.00 L 274.00 740.00 L 270.00 736.00 L 264.00 736.00 L 260.00 733.00 L 251.00 732.00 L 247.00 728.00 L 238.00 729.00 L 236.00 725.00 L 230.00 724.00 L 227.00 720.00 L 220.00 720.00 L 217.00 716.00 L 212.00 716.00 L 209.00 713.00 L 205.00 713.00 L 201.00 708.00 L 195.00 708.00 L 185.00 700.00 L 181.00 701.00 L 178.00 696.00 L 168.00 692.00 L 167.00 689.00 L 162.00 689.00 L 153.00 680.00 L 140.00 673.00 L 130.00 661.00 L 121.00 657.00 L 115.00 649.00 L 98.00 635.00 L 98.00 633.00 L 90.00 626.00 L 88.00 621.00 L 84.00 618.00 L 83.00 620.00 L 102.00 641.00 L 106.00 642.00 L 106.00 645.00 L 118.00 657.00 L 125.00 661.00 L 141.00 676.00 L 145.00 677.00 L 146.00 680.00 L 150.00 681.00 L 157.00 688.00 L 162.00 689.00 L 163.00 692.00 L 173.00 696.00 L 175.00 700.00 L 180.00 701.00 L 189.00 706.00 L 189.00 708.00 L 195.00 709.00 L 197.00 712.00 L 204.00 714.00 L 204.00 716.00 L 210.00 717.00 L 212.00 720.00 L 227.00 725.00 L 230.00 728.00 L 238.00 729.00 L 241.00 732.00 L 247.00 733.00 L 254.00 737.00 L 263.00 738.00 L 266.00 741.00 L 274.00 741.00 L 277.00 744.00 L 288.00 745.00 L 290.00 747.00 L 293.00 746.00 L 296.00 749.00 L 307.00 749.00 L 312.00 752.00 L 329.00 753.00 L 331.00 755.00 L 337.00 753.00 L 339.00 756.00 L 345.00 757.00 L 421.00 757.00 L 427.00 756.00 L 428.00 754.00 L 435.00 755.00 L 437.00 753.00 L 448.00 753.00 L 459.00 749.00 L 469.00 749.00 L 476.00 745.00 L 488.00 744.00 L 489.00 742.00 L 501.00 740.00 L 504.00 737.00 L 514.00 736.00 L 517.00 733.00 L 521.00 733.00 L 525.00 729.00 L 531.00 729.00 L 537.00 725.00 L 543.00 724.00 L 545.00 721.00 L 551.00 720.00 L 554.00 716.00 L 560.00 716.00 L 569.00 709.00 L 572.00 709.00 L 574.00 706.00 L 588.00 700.00 L 600.00 692.00 L 602.00 688.00 L 607.00 688.00 L 618.00 677.00 L 621.00 677.00 L 629.00 669.00 L 641.00 661.00 L 640.00 660.00 L 642.00 657.00 L 645.00 657.00 L 654.00 648.00 L 656.00 648.00 L 660.00 642.00 L 672.00 632.00 L 676.00 627.00 L 677.00 622.00 L 684.00 618.00 L 688.00 610.00 L 692.00 608.00 L 697.00 599.00 L 707.00 588.00 L 708.00 582.00 L 712.00 580.00 L 716.00 570.00 L 721.00 565.00 L 726.00 554.00 L 728.00 553.00 Z M 743.00 518.00 L 743.00 521.00 L 736.00 525.00 L 733.00 538.00 L 728.00 542.00 L 730.00 546.00 L 732.00 545.00 L 741.00 524.00 L 744.00 522.00 Z M 512.00 382.00 L 506.00 384.00 L 499.00 392.00 L 477.00 408.00 L 474.00 408.00 L 471.00 412.00 L 467.00 413.00 L 446.00 427.00 L 441.00 428.00 L 437.00 432.00 L 421.00 437.00 L 419.00 440.00 L 414.00 438.00 L 420.00 429.00 L 421.00 412.00 L 419.00 401.00 L 407.00 388.00 L 400.00 384.00 L 379.00 384.00 L 365.00 393.00 L 363.00 398.00 L 360.00 400.00 L 356.00 409.00 L 356.00 425.00 L 360.00 435.00 L 363.00 437.00 L 361.00 441.00 L 350.00 440.00 L 345.00 436.00 L 333.00 433.00 L 330.00 429.00 L 325.00 428.00 L 307.00 412.00 L 307.00 410.00 L 298.00 401.00 L 297.00 397.00 L 295.00 397.00 L 294.00 405.00 L 277.00 411.00 L 277.00 419.00 L 275.00 420.00 L 273.00 418.00 L 273.00 413.00 L 268.00 406.00 L 268.00 402.00 L 262.00 394.00 L 262.00 387.00 L 259.00 386.00 L 259.00 394.00 L 261.00 396.00 L 263.00 408.00 L 267.00 409.00 L 267.00 420.00 L 270.00 423.00 L 271.00 428.00 L 274.00 430.00 L 275.00 436.00 L 279.00 438.00 L 279.00 441.00 L 283.00 447.00 L 287.00 449.00 L 292.00 456.00 L 295.00 458.00 L 296.00 457.00 L 301.00 464.00 L 305.00 465.00 L 318.00 476.00 L 326.00 477.00 L 327.00 479.00 L 329.00 478.00 L 330.00 481.00 L 334.00 483.00 L 338.00 482.00 L 338.00 484.00 L 341.00 485.00 L 350.00 484.00 L 353.00 489.00 L 407.00 489.00 L 406.00 486.00 L 409.00 484.00 L 414.00 484.00 L 417.00 488.00 L 419.00 485.00 L 427.00 484.00 L 428.00 481.00 L 436.00 481.00 L 437.00 478.00 L 444.00 477.00 L 451.00 471.00 L 453.00 472.00 L 468.00 461.00 L 468.00 458.00 L 473.00 456.00 L 472.00 454.00 L 474.00 452.00 L 476.00 453.00 L 476.00 451.00 L 484.00 445.00 L 486.00 441.00 L 484.00 439.00 L 485.00 437.00 L 489.00 437.00 L 491.00 435.00 L 493.00 429.00 L 496.00 427.00 L 497.00 421.00 L 500.00 419.00 L 502.00 412.00 L 501.00 410.00 L 504.00 406.00 L 505.00 407.00 L 509.00 386.00 Z M 375.00 388.00 L 380.00 389.00 L 384.00 386.00 L 393.00 386.00 L 398.00 389.00 L 401.00 394.00 L 402.00 390.00 L 406.00 389.00 L 407.00 393.00 L 414.00 397.00 L 413.00 402.00 L 408.00 398.00 L 407.00 400.00 L 404.00 395.00 L 404.00 398.00 L 408.00 404.00 L 410.00 405.00 L 415.00 403.00 L 417.00 405.00 L 418.00 418.00 L 415.00 420.00 L 415.00 412.00 L 411.00 412.00 L 412.00 418.00 L 410.00 428.00 L 405.00 433.00 L 406.00 435.00 L 408.00 432.00 L 413.00 430.00 L 414.00 433.00 L 410.00 434.00 L 407.00 438.00 L 400.00 438.00 L 401.00 441.00 L 399.00 443.00 L 397.00 443.00 L 394.00 439.00 L 392.00 439.00 L 393.00 440.00 L 391.00 443.00 L 377.00 443.00 L 371.00 439.00 L 371.00 435.00 L 368.00 433.00 L 369.00 430.00 L 368.00 432.00 L 365.00 430.00 L 367.00 432.00 L 364.00 435.00 L 361.00 433.00 L 363.00 428.00 L 358.00 420.00 L 358.00 415.00 L 361.00 409.00 L 360.00 402.00 L 364.00 400.00 L 369.00 393.00 L 372.00 393.00 L 372.00 390.00 Z " fill="#003a83"/>
    <path d="M 22.00 511.00 L 22.00 513.00 L 27.00 516.00 L 26.00 521.00 L 31.00 525.00 L 31.00 531.00 L 36.00 533.00 L 41.00 541.00 L 41.00 545.00 L 46.00 549.00 L 46.00 553.00 L 50.00 555.00 L 51.00 561.00 L 52.00 557.00 L 55.00 556.00 L 61.00 561.00 L 61.00 563.00 L 66.00 564.00 L 72.00 569.00 L 72.00 571.00 L 75.00 571.00 L 76.00 574.00 L 83.00 575.00 L 84.00 579.00 L 91.00 579.00 L 92.00 583.00 L 99.00 584.00 L 100.00 587.00 L 107.00 588.00 L 108.00 591.00 L 112.00 592.00 L 112.00 594.00 L 131.00 595.00 L 132.00 598.00 L 147.00 600.00 L 148.00 603.00 L 163.00 603.00 L 164.00 607.00 L 179.00 608.00 L 180.00 611.00 L 191.00 611.00 L 192.00 614.00 L 199.00 611.00 L 201.00 615.00 L 211.00 615.00 L 212.00 618.00 L 223.00 618.00 L 224.00 616.00 L 227.00 616.00 L 228.00 618.00 L 251.00 619.00 L 259.00 616.00 L 260.00 619.00 L 262.00 619.00 L 263.00 615.00 L 268.00 614.00 L 271.00 615.00 L 272.00 618.00 L 275.00 618.00 L 276.00 615.00 L 283.00 615.00 L 284.00 611.00 L 287.00 612.00 L 287.00 609.00 L 284.00 608.00 L 285.00 605.00 L 291.00 605.00 L 287.00 605.00 L 283.00 601.00 L 285.00 603.00 L 284.00 605.00 L 278.00 605.00 L 276.00 603.00 L 278.00 601.00 L 274.00 601.00 L 271.00 598.00 L 272.00 599.00 L 270.00 601.00 L 265.00 601.00 L 264.00 598.00 L 268.00 597.00 L 259.00 597.00 L 259.00 593.00 L 255.00 594.00 L 250.00 589.00 L 246.00 589.00 L 245.00 586.00 L 236.00 586.00 L 231.00 583.00 L 233.00 581.00 L 228.00 582.00 L 225.00 578.00 L 220.00 577.00 L 218.00 573.00 L 219.00 575.00 L 217.00 577.00 L 215.00 575.00 L 216.00 573.00 L 214.00 576.00 L 218.00 577.00 L 219.00 580.00 L 212.00 580.00 L 212.00 583.00 L 208.00 584.00 L 207.00 580.00 L 199.00 579.00 L 198.00 573.00 L 196.00 576.00 L 192.00 576.00 L 191.00 580.00 L 184.00 580.00 L 183.00 576.00 L 180.00 575.00 L 180.00 572.00 L 179.00 575.00 L 175.00 572.00 L 164.00 572.00 L 163.00 568.00 L 148.00 567.00 L 147.00 564.00 L 136.00 563.00 L 135.00 560.00 L 128.00 560.00 L 127.00 556.00 L 116.00 555.00 L 115.00 552.00 L 108.00 552.00 L 107.00 555.00 L 104.00 555.00 L 103.00 548.00 L 96.00 548.00 L 94.00 544.00 L 84.00 544.00 L 83.00 537.00 L 76.00 540.00 L 75.00 537.00 L 63.00 535.00 L 68.00 533.00 L 87.00 533.00 L 94.00 531.00 L 83.00 530.00 L 85.00 531.00 L 84.00 532.00 L 42.00 532.00 L 39.00 530.00 L 41.00 533.00 L 39.00 538.00 L 36.00 533.00 L 31.00 530.00 L 32.00 525.00 L 27.00 520.00 L 26.00 514.00 Z M 634.00 451.00 L 635.00 453.00 L 642.00 455.00 L 675.00 455.00 L 685.00 459.00 L 683.00 461.00 L 676.00 462.00 L 677.00 467.00 L 680.00 467.00 L 681.00 471.00 L 684.00 472.00 L 683.00 475.00 L 677.00 476.00 L 677.00 479.00 L 680.00 480.00 L 680.00 484.00 L 675.00 488.00 L 676.00 494.00 L 668.00 497.00 L 667.00 503.00 L 657.00 504.00 L 697.00 506.00 L 707.00 510.00 L 700.00 506.00 L 688.00 506.00 L 687.00 504.00 L 699.00 502.00 L 699.00 497.00 L 706.00 495.00 L 707.00 488.00 L 711.00 487.00 L 711.00 484.00 L 714.00 483.00 L 714.00 477.00 L 720.00 472.00 L 730.00 471.00 L 720.00 470.00 L 717.00 465.00 L 708.00 465.00 L 701.00 461.00 L 688.00 460.00 L 683.00 458.00 L 682.00 454.00 L 661.00 455.00 L 655.00 453.00 L 655.00 451.00 Z M 534.00 301.00 L 531.00 300.00 L 528.00 303.00 L 528.00 306.00 L 521.00 304.00 L 520.00 308.00 L 516.00 309.00 L 513.00 313.00 L 510.00 311.00 L 505.00 317.00 L 501.00 314.00 L 501.00 317.00 L 495.00 320.00 L 494.00 324.00 L 483.00 331.00 L 488.00 332.00 L 498.00 325.00 L 503.00 324.00 L 509.00 318.00 L 514.00 318.00 L 516.00 312.00 L 522.00 312.00 L 529.00 305.00 L 534.00 304.00 Z M 489.00 302.00 L 484.00 300.00 L 485.00 294.00 L 481.00 291.00 L 481.00 295.00 L 487.00 305.00 L 487.00 310.00 L 492.00 313.00 L 489.00 318.00 L 486.00 317.00 L 486.00 313.00 L 480.00 313.00 L 479.00 315.00 L 445.00 317.00 L 442.00 321.00 L 436.00 321.00 L 435.00 323.00 L 405.00 329.00 L 402.00 332.00 L 397.00 332.00 L 395.00 335.00 L 385.00 336.00 L 375.00 343.00 L 367.00 344.00 L 359.00 349.00 L 353.00 349.00 L 347.00 355.00 L 332.00 358.00 L 331.00 361.00 L 325.00 361.00 L 322.00 365.00 L 316.00 365.00 L 316.00 367.00 L 313.00 368.00 L 308.00 375.00 L 305.00 375.00 L 302.00 379.00 L 299.00 379.00 L 296.00 384.00 L 292.00 382.00 L 292.00 373.00 L 289.00 371.00 L 292.00 376.00 L 292.00 382.00 L 297.00 387.00 L 301.00 397.00 L 308.00 403.00 L 308.00 400.00 L 313.00 395.00 L 318.00 396.00 L 325.00 386.00 L 339.00 382.00 L 339.00 380.00 L 344.00 376.00 L 351.00 375.00 L 356.00 368.00 L 362.00 367.00 L 365.00 363.00 L 370.00 362.00 L 377.00 356.00 L 391.00 354.00 L 392.00 352.00 L 398.00 351.00 L 401.00 348.00 L 407.00 348.00 L 408.00 346.00 L 415.00 346.00 L 416.00 344.00 L 423.00 344.00 L 424.00 342.00 L 432.00 342.00 L 440.00 336.00 L 447.00 336.00 L 448.00 338.00 L 445.00 340.00 L 448.00 341.00 L 450.00 337.00 L 456.00 337.00 L 457.00 333.00 L 461.00 335.00 L 465.00 330.00 L 468.00 331.00 L 479.00 324.00 L 486.00 323.00 L 492.00 316.00 L 492.00 311.00 L 488.00 308.00 Z " fill="#0668c3"/>
    <path d="M 64.00 535.00 L 75.00 536.00 L 76.00 539.00 L 83.00 536.00 L 84.00 543.00 L 94.00 543.00 L 96.00 547.00 L 103.00 547.00 L 104.00 554.00 L 107.00 554.00 L 108.00 551.00 L 115.00 551.00 L 116.00 554.00 L 127.00 555.00 L 128.00 559.00 L 135.00 559.00 L 136.00 562.00 L 147.00 563.00 L 148.00 566.00 L 163.00 567.00 L 164.00 571.00 L 175.00 571.00 L 179.00 574.00 L 180.00 571.00 L 181.00 575.00 L 184.00 576.00 L 184.00 579.00 L 191.00 579.00 L 191.00 576.00 L 196.00 575.00 L 198.00 572.00 L 200.00 579.00 L 207.00 579.00 L 208.00 583.00 L 211.00 583.00 L 212.00 579.00 L 218.00 580.00 L 218.00 578.00 L 213.00 576.00 L 215.00 572.00 L 218.00 572.00 L 220.00 576.00 L 225.00 577.00 L 228.00 581.00 L 233.00 580.00 L 236.00 585.00 L 245.00 585.00 L 246.00 588.00 L 244.00 590.00 L 249.00 588.00 L 246.00 585.00 L 237.00 584.00 L 235.00 581.00 L 221.00 576.00 L 218.00 572.00 L 214.00 572.00 L 205.00 565.00 L 199.00 564.00 L 190.00 557.00 L 185.00 557.00 L 181.00 553.00 L 167.00 549.00 L 163.00 545.00 L 164.00 548.00 L 159.00 549.00 L 157.00 547.00 L 161.00 544.00 L 153.00 544.00 L 141.00 537.00 L 130.00 537.00 L 121.00 533.00 L 124.00 535.00 L 123.00 537.00 L 105.00 536.00 L 105.00 534.00 L 118.00 532.00 L 110.00 532.00 L 99.00 529.00 L 74.00 529.00 L 94.00 530.00 L 94.00 533.00 Z M 38.00 479.00 L 36.00 482.00 L 31.00 482.00 L 19.00 490.00 L 17.00 499.00 L 19.00 500.00 L 18.00 501.00 L 21.00 500.00 L 23.00 502.00 L 22.00 510.00 L 27.00 514.00 L 28.00 520.00 L 32.00 523.00 L 32.00 530.00 L 35.00 531.00 L 39.00 537.00 L 40.00 533.00 L 38.00 530.00 L 47.00 529.00 L 34.00 528.00 L 34.00 522.00 L 29.00 518.00 L 28.00 511.00 L 24.00 509.00 L 24.00 501.00 L 20.00 494.00 L 26.00 486.00 L 33.00 486.00 L 39.00 481.00 Z M 6.00 453.00 L 6.00 461.00 L 10.00 464.00 L 11.00 473.00 L 16.00 473.00 L 25.00 466.00 L 32.00 464.00 L 33.00 461.00 L 38.00 461.00 L 41.00 458.00 L 38.00 457.00 L 36.00 461.00 L 32.00 461.00 L 28.00 465.00 L 22.00 465.00 L 19.00 469.00 L 14.00 469.00 L 10.00 464.00 L 10.00 456.00 Z M 567.00 465.00 L 577.00 466.00 L 579.00 463.00 L 588.00 462.00 L 590.00 458.00 L 612.00 460.00 L 613.00 458.00 L 619.00 456.00 L 632.00 456.00 L 638.00 459.00 L 634.00 461.00 L 616.00 462.00 L 615.00 467.00 L 612.00 468.00 L 612.00 475.00 L 608.00 476.00 L 608.00 479.00 L 605.00 480.00 L 607.00 487.00 L 604.00 488.00 L 605.00 494.00 L 600.00 497.00 L 600.00 507.00 L 597.00 508.00 L 601.00 510.00 L 618.00 510.00 L 630.00 506.00 L 693.00 507.00 L 705.00 511.00 L 713.00 511.00 L 706.00 511.00 L 697.00 507.00 L 661.00 506.00 L 656.00 504.00 L 667.00 502.00 L 667.00 497.00 L 675.00 494.00 L 674.00 488.00 L 677.00 484.00 L 679.00 484.00 L 679.00 480.00 L 676.00 479.00 L 676.00 476.00 L 683.00 474.00 L 683.00 472.00 L 680.00 471.00 L 680.00 468.00 L 676.00 467.00 L 675.00 462.00 L 677.00 460.00 L 684.00 459.00 L 680.00 459.00 L 675.00 456.00 L 642.00 456.00 L 634.00 453.00 L 635.00 451.00 L 632.00 451.00 L 631.00 454.00 L 624.00 455.00 L 619.00 453.00 L 612.00 456.00 L 611.00 454.00 L 608.00 454.00 L 607.00 458.00 L 604.00 458.00 L 602.00 455.00 L 597.00 458.00 L 585.00 458.00 L 582.00 462.00 L 573.00 462.00 Z M 461.00 254.00 L 459.00 254.00 L 457.00 250.00 L 457.00 254.00 L 461.00 256.00 L 461.00 262.00 L 464.00 264.00 L 464.00 270.00 L 470.00 278.00 L 471.00 282.00 L 469.00 284.00 L 467.00 284.00 L 466.00 281.00 L 456.00 281.00 L 455.00 283.00 L 437.00 285.00 L 434.00 289.00 L 428.00 289.00 L 422.00 295.00 L 417.00 293.00 L 416.00 295.00 L 409.00 296.00 L 395.00 305.00 L 388.00 305.00 L 387.00 307.00 L 373.00 312.00 L 370.00 315.00 L 365.00 315.00 L 362.00 319.00 L 357.00 320.00 L 355.00 327.00 L 348.00 309.00 L 346.00 311.00 L 346.00 323.00 L 351.00 326.00 L 350.00 331.00 L 348.00 333.00 L 346.00 331.00 L 348.00 336.00 L 346.00 340.00 L 343.00 340.00 L 345.00 345.00 L 336.00 353.00 L 322.00 351.00 L 321.00 348.00 L 315.00 347.00 L 313.00 345.00 L 313.00 338.00 L 309.00 335.00 L 310.00 327.00 L 308.00 330.00 L 308.00 342.00 L 310.00 344.00 L 310.00 348.00 L 308.00 349.00 L 305.00 345.00 L 303.00 348.00 L 291.00 351.00 L 287.00 357.00 L 285.00 355.00 L 283.00 310.00 L 287.00 302.00 L 287.00 297.00 L 287.00 301.00 L 284.00 304.00 L 283.00 309.00 L 284.00 353.00 L 289.00 364.00 L 289.00 369.00 L 294.00 376.00 L 293.00 382.00 L 296.00 383.00 L 299.00 378.00 L 302.00 378.00 L 305.00 374.00 L 308.00 374.00 L 308.00 372.00 L 315.00 367.00 L 316.00 364.00 L 322.00 364.00 L 325.00 360.00 L 331.00 360.00 L 332.00 357.00 L 347.00 354.00 L 353.00 348.00 L 362.00 347.00 L 367.00 343.00 L 375.00 342.00 L 385.00 335.00 L 395.00 334.00 L 397.00 331.00 L 402.00 331.00 L 405.00 328.00 L 435.00 322.00 L 436.00 320.00 L 442.00 320.00 L 445.00 316.00 L 479.00 314.00 L 480.00 312.00 L 486.00 312.00 L 487.00 317.00 L 489.00 317.00 L 491.00 313.00 L 486.00 310.00 L 486.00 305.00 L 480.00 295.00 L 481.00 289.00 L 476.00 287.00 L 476.00 281.00 L 474.00 282.00 L 472.00 276.00 L 468.00 273.00 L 469.00 269.00 L 465.00 266.00 L 465.00 262.00 L 461.00 258.00 Z " fill="#0b6fc9"/>
    <path d="M 607.00 84.00 L 601.00 82.00 L 599.00 79.00 L 591.00 74.00 L 590.00 75.00 L 587.00 71.00 L 571.00 62.00 L 572.00 66.00 L 574.00 66.00 L 578.00 71.00 L 583.00 70.00 L 586.00 75.00 L 594.00 78.00 L 597.00 83.00 L 602.00 83.00 L 605.00 90.00 L 600.00 93.00 L 588.00 110.00 L 576.00 122.00 L 576.00 125.00 L 572.00 128.00 L 564.00 142.00 L 561.00 143.00 L 555.00 150.00 L 548.00 162.00 L 543.00 165.00 L 543.00 169.00 L 539.00 172.00 L 535.00 179.00 L 527.00 185.00 L 527.00 189.00 L 522.00 192.00 L 516.00 200.00 L 514.00 199.00 L 513.00 194.00 L 509.00 195.00 L 506.00 192.00 L 507.00 191.00 L 499.00 191.00 L 496.00 188.00 L 498.00 185.00 L 503.00 184.00 L 499.00 184.00 L 497.00 186.00 L 492.00 186.00 L 488.00 183.00 L 489.00 182.00 L 479.00 182.00 L 478.00 184.00 L 476.00 179.00 L 468.00 180.00 L 464.00 175.00 L 457.00 175.00 L 453.00 172.00 L 440.00 173.00 L 433.00 167.00 L 427.00 168.00 L 423.00 150.00 L 418.00 146.00 L 419.00 139.00 L 415.00 134.00 L 415.00 131.00 L 410.00 129.00 L 412.00 127.00 L 412.00 122.00 L 407.00 117.00 L 406.00 110.00 L 403.00 108.00 L 403.00 102.00 L 398.00 98.00 L 399.00 94.00 L 395.00 90.00 L 394.00 84.00 L 391.00 82.00 L 391.00 78.00 L 385.00 69.00 L 382.00 68.00 L 381.00 72.00 L 372.00 82.00 L 373.00 90.00 L 368.00 93.00 L 368.00 100.00 L 365.00 101.00 L 365.00 108.00 L 368.00 107.00 L 368.00 101.00 L 376.00 87.00 L 376.00 82.00 L 380.00 79.00 L 380.00 74.00 L 384.00 72.00 L 390.00 82.00 L 391.00 88.00 L 395.00 93.00 L 399.00 106.00 L 403.00 110.00 L 403.00 116.00 L 405.00 117.00 L 407.00 124.00 L 411.00 127.00 L 411.00 135.00 L 415.00 137.00 L 415.00 144.00 L 418.00 148.00 L 419.00 155.00 L 423.00 159.00 L 423.00 166.00 L 427.00 169.00 L 427.00 172.00 L 434.00 172.00 L 446.00 177.00 L 455.00 177.00 L 457.00 180.00 L 478.00 185.00 L 481.00 188.00 L 488.00 189.00 L 500.00 196.00 L 507.00 197.00 L 516.00 204.00 L 521.00 204.00 L 524.00 202.00 L 524.00 198.00 L 528.00 196.00 L 533.00 186.00 L 544.00 174.00 L 544.00 170.00 L 552.00 163.00 L 553.00 159.00 L 564.00 147.00 L 565.00 143.00 L 576.00 131.00 L 580.00 123.00 L 607.00 91.00 Z M 355.00 14.00 L 332.00 15.00 L 328.00 18.00 L 317.00 18.00 L 304.00 22.00 L 296.00 22.00 L 286.00 27.00 L 275.00 27.00 L 274.00 29.00 L 264.00 31.00 L 263.00 34.00 L 269.00 35.00 L 273.00 30.00 L 281.00 31.00 L 288.00 30.00 L 290.00 27.00 L 299.00 27.00 L 301.00 22.00 L 323.00 23.00 L 331.00 19.00 L 346.00 19.00 Z " fill="#aec949"/>
    <path d="M 132.00 103.00 L 135.00 104.00 L 137.00 108.00 L 134.00 116.00 L 139.00 116.00 L 136.00 126.00 L 143.00 127.00 L 144.00 131.00 L 150.00 132.00 L 151.00 135.00 L 151.00 132.00 L 153.00 132.00 L 153.00 135.00 L 156.00 136.00 L 155.00 143.00 L 156.00 139.00 L 157.00 142.00 L 160.00 143.00 L 160.00 147.00 L 168.00 148.00 L 168.00 151.00 L 164.00 152.00 L 164.00 155.00 L 178.00 155.00 L 179.00 149.00 L 175.00 148.00 L 175.00 144.00 L 177.00 142.00 L 176.00 139.00 L 169.00 141.00 L 167.00 140.00 L 168.00 138.00 L 167.00 140.00 L 164.00 129.00 L 160.00 128.00 L 155.00 122.00 L 157.00 118.00 L 155.00 113.00 L 148.00 119.00 L 145.00 115.00 L 147.00 108.00 L 144.00 108.00 L 142.00 105.00 L 145.00 102.00 L 136.00 101.00 L 134.00 104.00 Z " fill="#50cdd4"/>
    <path d="M 406.00 390.00 L 403.00 390.00 L 401.00 395.00 L 398.00 390.00 L 393.00 387.00 L 384.00 387.00 L 380.00 390.00 L 375.00 389.00 L 373.00 390.00 L 372.00 394.00 L 369.00 394.00 L 365.00 400.00 L 361.00 402.00 L 362.00 409.00 L 359.00 415.00 L 359.00 420.00 L 364.00 428.00 L 362.00 433.00 L 365.00 433.00 L 366.00 437.00 L 368.00 437.00 L 369.00 433.00 L 375.00 441.00 L 384.00 442.00 L 379.00 439.00 L 380.00 438.00 L 377.00 439.00 L 376.00 435.00 L 374.00 438.00 L 373.00 433.00 L 372.00 434.00 L 370.00 432.00 L 371.00 431.00 L 368.00 434.00 L 365.00 433.00 L 366.00 430.00 L 368.00 431.00 L 368.00 428.00 L 366.00 428.00 L 366.00 425.00 L 366.00 428.00 L 364.00 428.00 L 363.00 419.00 L 365.00 412.00 L 363.00 410.00 L 367.00 404.00 L 367.00 401.00 L 373.00 395.00 L 377.00 396.00 L 380.00 392.00 L 381.00 394.00 L 385.00 392.00 L 390.00 393.00 L 385.00 391.00 L 388.00 388.00 L 392.00 389.00 L 393.00 392.00 L 396.00 392.00 L 399.00 395.00 L 398.00 396.00 L 401.00 395.00 L 403.00 397.00 L 404.00 393.00 L 407.00 399.00 L 408.00 397.00 L 413.00 401.00 L 413.00 397.00 L 407.00 394.00 Z " fill="#000088"/>
    <path d="M 686.00 215.00 L 678.00 216.00 L 659.00 225.00 L 682.00 215.00 L 686.00 217.00 L 684.00 221.00 L 638.00 267.00 L 612.00 288.00 L 603.00 297.00 L 602.00 301.00 L 611.00 291.00 L 631.00 275.00 L 671.00 237.00 L 687.00 219.00 Z " fill="#673d59"/>
  </g>
</svg>